<?xml version="1.0" encoding="utf-8"?>
<!-- Generator: Adobe Illustrator 27.1.1, SVG Export Plug-In . SVG Version: 6.00 Build 0)  -->
<svg version="1.1" id="Tax09" xmlns="http://www.w3.org/2000/svg" xmlns:xlink="http://www.w3.org/1999/xlink" x="0px" y="0px"
	 viewBox="0 0 3000 3000" style="enable-background:new 0 0 3000 3000;" xml:space="preserve">
<style type="text/css">
	.st0{fill:#EFF0F4;}
	.st1{fill:#D4DAE6;}
	.st2{fill:#BAC3D8;}
	.st3{opacity:0.2;}
	.st4{fill:#9AA8C1;}
	.st5{opacity:0.5;fill:#D4DAE6;enable-background:new    ;}
	.st6{fill:#FFCA1A;}
	.st7{fill:#E3AF23;}
	.st8{fill:#C7942B;}
	.st9{opacity:0.5;fill:#E3AF23;enable-background:new    ;}
	.st10{fill:#DDAE9F;}
	.st11{fill:#C69487;}
	.st12{opacity:0.2;fill:#FFFFFF;enable-background:new    ;}
	.st13{fill:#46A7F1;}
	.st14{fill:#71BDF8;}
	.st15{fill:#324075;}
	.st16{fill:#2F385B;}
	.st17{fill:#84C9FF;}
	.st18{opacity:0.5;fill:#46A7F1;}
	.st19{opacity:0.35;fill:#C69487;}
	.st20{fill:#FCFAF7;}
</style>
<path id="Shadow" class="st0" d="M488.6,2586.4c119.1-76.1,2013.8-53.6,2085.5-14.9s-106,71.9-81.9,119s-481.3,56.5-731.9,34.9
	c-250.6-21.7-138.4,11.9-570.2,19.9c-431.8,8-634.5-45.5-588.6-91.6C647.5,2607.3,463.2,2602.6,488.6,2586.4z"/>
<g id="Mobile_screen">
	<g id="Mobile_Screen_00000165222031227375100630000008721986297535397292_">
		<path class="st1" d="M2136.5,381.1h-846.8c-102.4,0-185.3,83.1-185.3,185.3v44.9v1750.8v44.9c0,102.3,83,185.3,185.3,185.3h846.8
			c102.4,0,185.3-83.1,185.3-185.3v-44.9V611.4v-44.9C2321.7,464.2,2238.8,381.1,2136.5,381.1z"/>
		<path class="st2" d="M2254.6,2190.3c0.8,0,66.8,0,66.8,0V2152h-66L2254.6,2190.3z"/>
		<path class="st0" d="M1289.6,2526c-65.6,0-118.9-53.3-118.9-118.9V566.5c0-65.6,53.3-118.9,119-118.9h846.8
			c65.6,0,118.9,53.3,118.9,118.9V2407c0,65.6-53.3,118.9-119,118.9L1289.6,2526L1289.6,2526z"/>
		<g class="st3">
			<rect x="1720.9" y="1367.2" class="st2" width="410.3" height="273.5"/>
			<rect x="1604.3" y="2058.6" class="st2" width="527" height="273.5"/>
			<rect x="1337.3" y="1704.7" class="st4" width="794" height="113.1"/>
			<rect x="1259.9" y="1872.3" class="st2" width="871.3" height="113.1"/>
		</g>
	</g>
</g>
<g id="Percent">
	<path class="st0" d="M956.5,291.9H738.6c-14.9,0-27,12.1-27,27v122.5c0,14.9,12.1,27,27,27h155.1l60.8,37.9l-8.8-37.9h10.8
		c14.9,0,27-12.1,27-27V318.9C983.5,304,971.4,291.9,956.5,291.9z"/>
	<g>
		<path class="st1" d="M807.1,323.8c14.3,0,25,8.7,25,25.4c0,16.7-10.7,25.4-25,25.4s-25.1-8.7-25.1-25.4S792.8,323.8,807.1,323.8z
			 M799.7,349.2c0,7.1,2.7,10.2,7.2,10.2s7.4-3.2,7.4-10.2c0-7.2-2.9-10.4-7.4-10.4C802.4,338.9,799.7,342,799.7,349.2z
			 M859.3,325.5h24.8l-57.9,105.9h-24.8L859.3,325.5z M878.5,382.2c14.3,0,25,8.6,25,25.4c0,16.7-10.7,25.4-25,25.4s-25-8.7-25-25.4
			C853.5,390.7,864.2,382.2,878.5,382.2z M871.1,407.6c0,7.1,2.7,10.2,7.2,10.2s7.4-3.2,7.4-10.2c0-7.1-2.9-10.4-7.4-10.4
			S871.1,400.5,871.1,407.6z"/>
	</g>
</g>
<g id="Calendar_00000005257621164485249180000000298445626298104710_">
	<path class="st2" d="M2439.4,2179.9h-515.1c-14.7,0-26.2,11.5-25.8,25.7l13.6,403.8c0.5,14.1,12.8,25.7,27.5,25.7h515
		c14.7,0,26.2-11.5,25.8-25.7l-13.6-403.8C2466.4,2191.4,2454.1,2179.9,2439.4,2179.9z"/>
	<path class="st0" d="M2431.8,2179.9h-515.1c-14.7,0-27.4,12-28.2,26.7l-23.9,419.5c-0.8,14.7,10.4,26.7,25.1,26.7h515.1
		c14.7,0,27.4-12,28.2-26.7l23.9-419.5C2457.8,2191.8,2446.5,2179.9,2431.8,2179.9z"/>
	<path class="st1" d="M1884.8,2265.4l-20.2,339.1C1864.6,2604.5,1908.8,2379.5,1884.8,2265.4z"/>
	<path class="st1" d="M1880.8,2651.1h524C2404.8,2651.1,2122.9,2623.1,1880.8,2651.1z"/>
	<path class="st1" d="M2452.5,2285.6l4.4-79c0.8-14.7-10.4-26.7-25.1-26.7h-515.1c-14.7,0-27.4,12-28.2,26.7l-4.4,79H2452.5z"/>
	<g>
		<path class="st2" d="M2334.8,2233.7c0,10.8-8.8,19.7-19.7,19.7s-19.7-8.8-19.7-19.7s8.8-19.7,19.7-19.7
			S2334.8,2222.7,2334.8,2233.7z"/>
		<path class="st2" d="M2051.4,2233.7c0,10.8-8.8,19.7-19.7,19.7c-10.8,0-19.7-8.8-19.7-19.7s8.8-19.7,19.7-19.7
			C2042.7,2214,2051.4,2222.7,2051.4,2233.7z"/>
	</g>
	<g>
		<polygon class="st1" points="2033.2,2402.6 1963.9,2402.6 1967.9,2333.2 2037.1,2333.2 		"/>
		<polygon class="st5" points="2142,2402.6 2072.7,2402.6 2076.6,2333.2 2145.9,2333.2 		"/>
		<polygon class="st5" points="2250.8,2402.6 2181.4,2402.6 2185.3,2333.2 2254.6,2333.2 		"/>
		<polygon class="st5" points="2359.4,2402.6 2290.2,2402.6 2294.1,2333.2 2363.4,2333.2 		"/>
		<polygon class="st1" points="2027.8,2496.1 1958.5,2496.1 1962.5,2426.8 2031.8,2426.8 		"/>
		<polygon class="st5" points="2136.6,2496.1 2067.3,2496.1 2071.3,2426.8 2140.6,2426.8 		"/>
		<polygon class="st1" points="2245.4,2496.1 2176.1,2496.1 2180.1,2426.8 2249.3,2426.8 		"/>
		<polygon class="st2" points="2178.4,2455.6 2194.2,2446.5 2209.5,2459.6 2251.7,2431.4 2257.7,2431.4 2210.5,2483.1 		"/>
		<polygon class="st5" points="2354.2,2496.1 2284.9,2496.1 2288.8,2426.8 2358.1,2426.8 		"/>
		<polygon class="st1" points="2022.5,2589.7 1953.3,2589.7 1957.1,2520.4 2026.5,2520.4 		"/>
		<polygon class="st5" points="2131.3,2589.7 2062,2589.7 2065.9,2520.4 2135.3,2520.4 		"/>
		<polygon class="st5" points="2240,2589.7 2170.7,2589.7 2174.7,2520.4 2244,2520.4 		"/>
		<polygon class="st5" points="2348.8,2589.7 2279.5,2589.7 2283.5,2520.4 2352.8,2520.4 		"/>
	</g>
</g>
<g id="Tax_deadline">
	<polygon class="st6" points="2017.3,1387.6 1944.1,1499.1 1868.8,1387.6 	"/>
	<rect x="1298.1" y="254.1" class="st6" width="819" height="1166.9"/>
	<g>
		<path class="st7" d="M1842.9,763.7h-385.5c-22.9,0-41.4,18.4-41.4,41.4c0,22.9,18.4,41.4,41.4,41.4h385.5
			c22.9,0,41.4-18.4,41.4-41.4C1884.3,782.1,1865.5,763.7,1842.9,763.7z"/>
		<path class="st7" d="M1952.8,763.7h-13.3c-22.9,0-41.4,18.4-41.4,41.4c0,22.9,18.4,41.4,41.4,41.4h13.3
			c22.9,0,41.4-18.4,41.4-41.4C1994.1,782.1,1975.4,763.7,1952.8,763.7z"/>
	</g>
	<g>
		<g>
			<path class="st7" d="M1698.4,1155.8h-270.7c-7.7,0-13.9,6.2-13.9,13.9s6.2,13.9,13.9,13.9h270.7c7.7,0,13.9-6.2,13.9-13.9
				C1712.2,1162,1706,1155.8,1698.4,1155.8z"/>
			<path class="st8" d="M1986.5,1155.8h-238.1c-7.7,0-13.9,6.2-13.9,13.9s6.2,13.9,13.9,13.9h238.1c7.7,0,13.9-6.2,13.9-13.9
				C2000.3,1162,1994.1,1155.8,1986.5,1155.8z"/>
			<path class="st8" d="M1617.1,1307.5h-189.4c-7.7,0-13.9,6.2-13.9,13.9c0,7.7,6.2,13.9,13.9,13.9h189.4c7.7,0,13.9-6.2,13.9-13.9
				C1631,1313.6,1624.8,1307.5,1617.1,1307.5z"/>
			<path class="st7" d="M1698.4,1231.5h-270.7c-7.7,0-13.9,6.2-13.9,13.9c0,7.7,6.2,13.9,13.9,13.9h270.7c7.7,0,13.9-6.2,13.9-13.9
				C1712.2,1237.6,1706,1231.5,1698.4,1231.5z"/>
			<path class="st8" d="M1987.5,1231.5H1750c-7.7,0-13.9,6.2-13.9,13.9c0,7.7,6.2,13.9,13.9,13.9h237.5c7.7,0,13.9-6.2,13.9-13.9
				C2001.4,1237.6,1995.1,1231.5,1987.5,1231.5z"/>
		</g>
		<g>
			<path class="st7" d="M1421.7,900.1V979h97.1v-78.9H1421.7z M1501.9,960.2h-63.3v-41.4h63.3V960.2z"/>
			<path class="st7" d="M1421.7,1029.5v78.9h97.1v-78.9H1421.7z M1501.9,1089.6h-63.3v-41.4h63.3V1089.6z"/>
			<g>
				<path class="st8" d="M1640.8,905.9h-54.9c-2.8,0-5.1,2.3-5.1,5.1s2.3,5.1,5.1,5.1h54.9c2.8,0,5.1-2.3,5.1-5.1
					C1645.9,908.2,1643.6,905.9,1640.8,905.9z"/>
				<path class="st7" d="M1761.7,905.9h-102.1c-2.8,0-5.1,2.3-5.1,5.1s2.3,5.1,5.1,5.1h102.1c2.8,0,5.1-2.3,5.1-5.1
					S1764.5,905.9,1761.7,905.9z"/>
				<path class="st7" d="M1670.5,934.5H1586c-2.8,0-5.1,2.3-5.1,5.1s2.3,5.1,5.1,5.1h84.5c2.8,0,5.1-2.3,5.1-5.1
					C1675.5,936.7,1673.2,934.5,1670.5,934.5z"/>
				<path class="st8" d="M1761.7,934.5h-72.4c-2.8,0-5.1,2.3-5.1,5.1s2.3,5.1,5.1,5.1h72.4c2.8,0,5.1-2.3,5.1-5.1
					C1766.8,936.7,1764.5,934.5,1761.7,934.5z"/>
				<path class="st8" d="M1704.9,963h-119c-2.8,0-5.1,2.3-5.1,5.1s2.3,5.1,5.1,5.1h119c2.8,0,5.1-2.3,5.1-5.1S1707.7,963,1704.9,963
					z"/>
			</g>
			<g>
				<path class="st8" d="M1640.8,1033.7h-54.9c-2.8,0-5.1,2.3-5.1,5.1c0,2.8,2.3,5.1,5.1,5.1h54.9c2.8,0,5.1-2.3,5.1-5.1
					C1645.9,1035.9,1643.6,1033.7,1640.8,1033.7z"/>
				<path class="st7" d="M1761.7,1033.7h-102.1c-2.8,0-5.1,2.3-5.1,5.1c0,2.8,2.3,5.1,5.1,5.1h102.1c2.8,0,5.1-2.3,5.1-5.1
					C1766.8,1035.9,1764.5,1033.7,1761.7,1033.7z"/>
				<path class="st7" d="M1670.5,1062.3H1586c-2.8,0-5.1,2.3-5.1,5.1c0,2.8,2.3,5.1,5.1,5.1h84.5c2.8,0,5.1-2.3,5.1-5.1
					C1675.5,1064.5,1673.2,1062.3,1670.5,1062.3z"/>
				<path class="st8" d="M1761.7,1062.3h-72.4c-2.8,0-5.1,2.3-5.1,5.1c0,2.8,2.3,5.1,5.1,5.1h72.4c2.8,0,5.1-2.3,5.1-5.1
					C1766.8,1064.5,1764.5,1062.3,1761.7,1062.3z"/>
				<path class="st8" d="M1704.9,1090.8h-119c-2.8,0-5.1,2.3-5.1,5.1c0,2.8,2.3,5.1,5.1,5.1h119c2.8,0,5.1-2.3,5.1-5.1
					C1710,1093,1707.7,1090.8,1704.9,1090.8z"/>
			</g>
			<g>
				<path class="st8" d="M1872.3,905.9h-66.9c-2.8,0-5.1,2.3-5.1,5.1s2.3,5.1,5.1,5.1h66.9c2.8,0,5.1-2.3,5.1-5.1
					C1877.4,908.2,1875.2,905.9,1872.3,905.9z"/>
				<path class="st7" d="M1993.3,905.9h-102.1c-2.8,0-5.1,2.3-5.1,5.1s2.3,5.1,5.1,5.1h102.1c2.8,0,5.1-2.3,5.1-5.1
					C1998.3,908.2,1996.1,905.9,1993.3,905.9z"/>
				<path class="st7" d="M1902,934.5h-96.5c-2.8,0-5.1,2.3-5.1,5.1s2.3,5.1,5.1,5.1h96.5c2.8,0,5.1-2.3,5.1-5.1
					C1907,936.7,1904.7,934.5,1902,934.5z"/>
				<path class="st8" d="M1993.3,934.5h-72.4c-2.8,0-5.1,2.3-5.1,5.1s2.3,5.1,5.1,5.1h72.4c2.8,0,5.1-2.3,5.1-5.1
					C1998.3,936.7,1996.1,934.5,1993.3,934.5z"/>
				<path class="st8" d="M1936.5,963h-131c-2.8,0-5.1,2.3-5.1,5.1s2.3,5.1,5.1,5.1h131c2.8,0,5.1-2.3,5.1-5.1
					C1941.5,965.3,1939.2,963,1936.5,963z"/>
			</g>
			<g>
				<path class="st8" d="M1872.3,1033.7h-66.9c-2.8,0-5.1,2.3-5.1,5.1c0,2.8,2.3,5.1,5.1,5.1h66.9c2.8,0,5.1-2.3,5.1-5.1
					C1877.4,1035.9,1875.2,1033.7,1872.3,1033.7z"/>
				<path class="st7" d="M1993.3,1033.7h-102.1c-2.8,0-5.1,2.3-5.1,5.1c0,2.8,2.3,5.1,5.1,5.1h102.1c2.8,0,5.1-2.3,5.1-5.1
					C1998.3,1035.9,1996.1,1033.7,1993.3,1033.7z"/>
				<path class="st7" d="M1902,1062.3h-96.5c-2.8,0-5.1,2.3-5.1,5.1c0,2.8,2.3,5.1,5.1,5.1h96.5c2.8,0,5.1-2.3,5.1-5.1
					C1907,1064.5,1904.7,1062.3,1902,1062.3z"/>
				<path class="st8" d="M1993.3,1062.3h-72.4c-2.8,0-5.1,2.3-5.1,5.1c0,2.8,2.3,5.1,5.1,5.1h72.4c2.8,0,5.1-2.3,5.1-5.1
					C1998.3,1064.5,1996.1,1062.3,1993.3,1062.3z"/>
				<path class="st8" d="M1936.5,1090.8h-131c-2.8,0-5.1,2.3-5.1,5.1c0,2.8,2.3,5.1,5.1,5.1h131c2.8,0,5.1-2.3,5.1-5.1
					C1941.5,1093,1939.2,1090.8,1936.5,1090.8z"/>
			</g>
			<polygon class="st8" points="1448.5,930.8 1460.1,922.2 1470.4,932.3 1526.9,900.1 1529.6,901.3 1468.5,956.5 			"/>
		</g>
	</g>
	<g>
		<path class="st7" d="M2144.3,312.8h-731.5c-43.5,0-78.5,35-78.5,78.5s35,78.5,78.5,78.5h731.5c43.5,0,78.5-35,78.5-78.5
			C2222.8,347.7,2187.2,312.8,2144.3,312.8z"/>
		<g>
			<path class="st6" d="M1482.7,363.9h48.7v12.3h-16.7v50.7h-15.3v-50.7h-16.7V363.9z"/>
			<path class="st6" d="M1558.1,376.1c7.4,0,12.7,3.4,15.4,7.8v-7.1h15.3v50h-15.3v-7.1c-2.8,4.4-8.1,7.8-15.5,7.8
				c-12.2,0-22-10-22-25.8C1536,386,1545.8,376.1,1558.1,376.1z M1562.6,389.4c-5.7,0-10.9,4.3-10.9,12.3s5.2,12.5,10.9,12.5
				c5.8,0,10.9-4.4,10.9-12.4S1568.4,389.4,1562.6,389.4z"/>
			<path class="st6" d="M1620,412.9l-8.1,13.9h-16.6l16.5-25.6l-16.9-24.5h17.2l9.6,13.8l8.1-13.8h16.6l-16.8,25.3l17.2,24.8h-17.2
				L1620,412.9z"/>
			<path class="st6" d="M1728.3,395.4c0,18.7-12.9,31.5-33,31.5h-23.6V364h23.6C1715.4,363.9,1728.3,376.6,1728.3,395.4z
				 M1694.3,413.6c11.6,0,18.4-6.6,18.4-18.2s-6.8-18.4-18.4-18.4h-7.3v36.6H1694.3z"/>
			<path class="st6" d="M1759.1,427.6c-14.7,0-25.3-9.9-25.3-25.7c0-15.9,10.4-25.7,25.3-25.7c14.6,0,24.9,9.7,24.9,24.9
				c0,1.4-0.1,3-0.3,4.5H1749c0.5,6.5,4.6,9.6,9.5,9.6c4.3,0,6.7-2.2,8-4.8h16.3C1780.5,420,1771.6,427.6,1759.1,427.6z M1749.2,397
				h19.2c0-5.5-4.3-8.6-9.4-8.6C1753.9,388.4,1750.1,391.4,1749.2,397z"/>
			<path class="st6" d="M1811.2,376.1c7.4,0,12.7,3.4,15.4,7.8v-7.1h15.3v50h-15.3v-7.1c-2.8,4.4-8.1,7.8-15.5,7.8
				c-12.2,0-22-10-22-25.8C1789.1,386,1798.9,376.1,1811.2,376.1z M1815.6,389.4c-5.7,0-10.9,4.3-10.9,12.3s5.2,12.5,10.9,12.5
				c5.8,0,10.9-4.4,10.9-12.4C1826.6,393.8,1821.5,389.4,1815.6,389.4z"/>
			<path class="st6" d="M1872,376.1c6.6,0,12.4,3,15.4,7.6v-23.2h15.3v66.4h-15.3v-7.2c-2.8,4.6-8.1,7.9-15.4,7.9
				c-12.3,0-22.1-10-22.1-25.8C1850,386,1859.8,376.1,1872,376.1z M1876.5,389.4c-5.7,0-10.9,4.3-10.9,12.3s5.2,12.5,10.9,12.5
				c5.8,0,10.9-4.4,10.9-12.4C1887.5,393.8,1882.4,389.4,1876.5,389.4z"/>
			<path class="st6" d="M1913.9,360.5h15.3v66.4h-15.3V360.5z"/>
			<path class="st6" d="M1939,363.4c0-4.7,3.7-8.3,9.1-8.3s9.1,3.7,9.1,8.3c0,4.6-3.7,8.2-9.1,8.2
				C1942.6,371.6,1939,367.9,1939,363.4z M1940.4,376.8h15.3v50h-15.3V376.8z"/>
			<path class="st6" d="M2001.4,399.7c0-6.8-3.8-10.6-9.6-10.6c-5.8,0-9.6,3.8-9.6,10.6v27.2h-15.3v-50h15.3v6.6
				c3-4.2,8.4-7.2,15.2-7.2c11.6,0,19.3,7.9,19.3,21.3v29.2h-15.2v-27.1H2001.4z"/>
			<path class="st6" d="M2049.5,427.6c-14.7,0-25.3-9.9-25.3-25.7c0-15.9,10.4-25.7,25.3-25.7c14.6,0,24.9,9.7,24.9,24.9
				c0,1.4-0.1,3-0.3,4.5h-34.7c0.5,6.5,4.6,9.6,9.5,9.6c4.3,0,6.7-2.2,8-4.8h16.3C2070.9,420,2062,427.6,2049.5,427.6z M2039.6,397
				h19.2c0-5.5-4.3-8.6-9.4-8.6C2044.3,388.4,2040.5,391.4,2039.6,397z"/>
		</g>
	</g>
	<g>
		<g>
			<g>
				<rect x="1430.4" y="520.3" class="st7" width="50.2" height="50.2"/>
				<rect x="1430.4" y="590.1" class="st7" width="50.2" height="50.2"/>
				<rect x="1430.4" y="659.8" class="st7" width="50.2" height="50.2"/>
			</g>
			<g>
				<rect x="1511.5" y="520.3" class="st9" width="50.2" height="50.2"/>
				<rect x="1511.5" y="590.1" class="st7" width="50.2" height="50.2"/>
				<rect x="1511.5" y="659.8" class="st9" width="50.2" height="50.2"/>
			</g>
			<g>
				<rect x="1592.5" y="520.3" class="st9" width="50.2" height="50.2"/>
				<rect x="1592.5" y="590.1" class="st7" width="50.2" height="50.2"/>
				<rect x="1592.5" y="659.8" class="st9" width="50.2" height="50.2"/>
			</g>
			<g>
				<rect x="1673.6" y="520.3" class="st9" width="50.2" height="50.2"/>
				<rect x="1673.6" y="590.1" class="st7" width="50.2" height="50.2"/>
				<rect x="1673.6" y="659.8" class="st9" width="50.2" height="50.2"/>
			</g>
		</g>
		<polygon class="st8" points="1517.9,607.4 1529.5,598.8 1539.8,608.9 1575.2,589.5 1577.8,590.7 1537.9,633.1 		"/>
		<polygon class="st8" points="1599.1,607.4 1610.7,598.8 1621,608.9 1656.4,589.5 1659,590.7 1619.1,633.1 		"/>
		<polygon class="st8" points="1680.2,607.4 1691.9,598.8 1702.2,608.9 1737.5,589.5 1740.2,590.7 1700.3,633.1 		"/>
	</g>
	<g>
		<path class="st8" d="M1868.2,642.8h-66.9c-2.8,0-5.1,2.3-5.1,5.1s2.3,5.1,5.1,5.1h66.9c2.8,0,5.1-2.3,5.1-5.1
			C1873.2,645.1,1871,642.8,1868.2,642.8z"/>
		<path class="st7" d="M1989.1,642.8H1887c-2.8,0-5.1,2.3-5.1,5.1s2.3,5.1,5.1,5.1h102.1c2.8,0,5.1-2.3,5.1-5.1
			C1994.1,645.1,1991.9,642.8,1989.1,642.8z"/>
		<path class="st7" d="M1897.8,671.4h-96.5c-2.8,0-5.1,2.3-5.1,5.1s2.3,5.1,5.1,5.1h96.5c2.8,0,5.1-2.3,5.1-5.1
			S1900.6,671.4,1897.8,671.4z"/>
		<path class="st8" d="M1989.1,671.4h-72.5c-2.8,0-5.1,2.3-5.1,5.1s2.3,5.1,5.1,5.1h72.5c2.8,0,5.1-2.3,5.1-5.1
			S1991.9,671.4,1989.1,671.4z"/>
		<path class="st8" d="M1932.3,699.9h-131c-2.8,0-5.1,2.3-5.1,5.1s2.3,5.1,5.1,5.1h131c2.8,0,5.1-2.3,5.1-5.1
			C1937.3,702.2,1935.1,699.9,1932.3,699.9z"/>
	</g>
</g>
<g id="Character">
	<g>
		<g>
			<path class="st10" d="M700.1,757.2l23.6,86.9l57.5-12.9l-9.5-67.1c0,0,12.8-32.8-7.1-42.2C744.7,712.6,700.1,757.2,700.1,757.2z"
				/>
			<path class="st8" d="M757,693.9c0,0-56.6,73.9-52.2,89c4.3,15.1,36.6,22.9,36.6,22.9s27.2-68.3,70.2-108.2
				C808.2,689.8,757,693.9,757,693.9z"/>
			<path class="st8" d="M824.5,684.1c-6,15.5-6.4,29.9-0.8,32c5.6,2.2,15-8.7,21-24.2s6.4-29.9,0.8-32
				C839.9,657.7,830.5,668.5,824.5,684.1z"/>
			<path class="st7" d="M765.1,619.7l75.2,29.2c5.6,2.2,3.8,20-3.9,39.8s-18.4,34.2-24,32l-75.2-29.2L765.1,619.7z"/>
			<path class="st8" d="M741.1,651.7c-7.7,19.8-9.4,37.7-3.9,39.8c5.6,2.2,16.3-12.2,24-32s9.4-37.7,3.9-39.8
				C759.5,617.5,748.8,631.9,741.1,651.7z"/>
			<path class="st6" d="M676.3,535.6c34.3,49.7,86.7,86.1,86.7,86.1l-0.1,0.3c3.7,2.4,1.3,18.1-5.6,36
				c-7.1,18.3-16.3,31.9-20.4,30.3c-0.2-0.1-0.4-0.2-0.5-0.3c-8.3-1-66.6-7.3-121.1,5.3c-58.8,13.6-73.1,9.7-73.1,9.7L583,597.7
				l5.1-13.2l40.8-105.3C628.8,479.2,642,486,676.3,535.6z"/>
			<path class="st8" d="M543.3,574.7c-23.9,61.8-24,119.3-0.1,128.6c23.9,9.3,62.6-33.3,86.6-95.1c23.9-61.8,24-119.3,0.1-128.6
				C606,470.3,567.2,512.9,543.3,574.7z"/>
			<path class="st7" d="M548,576.5C525.4,635,523.7,689,544.4,697s55.8-32.9,78.5-91.4s24.3-112.5,3.6-120.5
				C605.9,477.1,570.7,518,548,576.5z"/>
			<path class="st6" d="M583.6,572.4l-12.4,31.9l42.9,21.8c3.1-6.5,6-13.4,8.8-20.5c2.7-7.1,5.2-14.2,7.3-21.1L583.6,572.4z"/>
			<path class="st8" d="M568.7,584.9c-3.4,8.8-2.3,17.5,2.6,19.3c4.8,1.9,11.5-3.7,14.9-12.6c3.4-8.8,2.3-17.5-2.6-19.3
				C578.8,570.5,572.1,576.1,568.7,584.9z"/>
			<path class="st6" d="M571.6,586.1c-2.6,6.8-2.2,13.4,1,14.6c3.2,1.2,8-3.3,10.6-10.1s2.2-13.4-1-14.6
				C579,574.7,574.3,579.2,571.6,586.1z"/>
		</g>
		<g>
			<path class="st10" d="M749.8,782.7c0.6-8.3-17.5-17.3-17.5-17.3s23.5,9,27.4,0.5c3.6-8-13.9-14.6-19.7-17
				c6.7,2.5,24.4,6,27.3-2.8c2.7-8.3-22.9-20.6-22.9-20.6s23.8,7.1,27.1-2.3c4.1-11.4-33.5-25.7-46.7-30.8
				c-9.8-3.7-37.5-0.4-24.3,14.4c0,0-14-0.8-15.6,10.7c-1.6,11.6,11.1,9.9,11.1,9.9s-12.9-0.1-14.8,11.8c-1.2,7.6,8.7,10.4,8.7,10.4
				s-10.8,4.1-5.7,13.8C691.8,777.8,748.9,795.1,749.8,782.7z"/>
			<path class="st11" d="M744.2,725.5c-4.5-1.7-16.4-3.3-13.7-7C731.8,716.7,744.2,725.5,744.2,725.5z"/>
			<path class="st11" d="M738.4,748.2c-4.5-1.8-19.1-4.3-16.5-8C723.3,738.4,738.4,748.2,738.4,748.2z"/>
			<path class="st11" d="M732.6,765.5c-4.5-1.7-19.1-4.3-16.5-8C717.4,755.6,732.6,765.5,732.6,765.5z"/>
			<path class="st12" d="M761.5,714.5l-2,9.4c0,0,8.5,2.1,10.1-1.3C771.3,719.1,761.5,714.5,761.5,714.5z"/>
			<path class="st12" d="M756.9,737.5c0,0-4.3,7.1-2.6,8.7c1.7,1.5,7.7,2.5,9.3-0.8C765.2,742,757.9,737.3,756.9,737.5z"/>
			<path class="st12" d="M752.5,757.2c0,0-4.7,4.6-3.4,8.8c0,0,7.6,3.5,9.2-0.6C759.9,761.4,752.5,757.2,752.5,757.2z"/>
			<path class="st12" d="M743.3,776.2c0,0-3.2,3.3-2.7,8.1c0,0,5.5,2,7-1.7C749,778.8,743.3,776.2,743.3,776.2z"/>
		</g>
		<path class="st10" d="M761.3,752c0,0-10.5-60.8-3.2-58.7c7.3,2,16.9,18.9,21.5,30.8c4.7,11.9-1.6,58.1-6.5,80.9
			c-4.9,22.9-39,10.3-39,10.3L761.3,752z"/>
		<path class="st11" d="M755.2,706c0,0,8.8,44,8.6,45.4s-17.9,43.2-19.2,42.7c-1.2-0.4,14.8-42.7,14.8-42.7S753.1,707.2,755.2,706z"
			/>
	</g>
	<g id="Character_00000035531651999349566860000017333477954084398210_">
		<g>
			<path class="st13" d="M1000.4,795.2L845,964.9L780,792c0,0-49.8,13.4-74.8,25c12.3,64.8,38.4,353.8,129.2,353.8
				C916,1163.3,971,1083,971,1083l56.6-291.8L1000.4,795.2z"/>
			<path class="st14" d="M845.2,969.7c0,0-5.6,43.9,4.8,69.5C860.4,1064.9,854.9,974.6,845.2,969.7z"/>
		</g>
		<g>
			<g>
				<polygon class="st10" points="963.1,2461.9 968.2,2574.4 1036,2569.5 1049,2458.7 				"/>
				<g>
					<path class="st15" d="M835.7,2596.6l-10.8,0.9c0,0-4.8,12.8-0.5,19.2s5.7,25.2,92.2,29.4c86.5,4.1,127.3-7.4,126.6-22.9
						C1042.4,2607.7,870.1,2635.2,835.7,2596.6z"/>
					<path class="st16" d="M949.4,2537.3c-1.4,3.8-2.8,8.3-3.6,13.6c-3.8,23.5-39,25.9-86.7,34.1c-13.4,2.4-24.5,5-31,8.5
						c-29.7,16.3,98,58.7,215.1,29.5c6.6-25.1,5.1-68.9,6.6-82.5C1002.4,2539.9,985.2,2545.2,949.4,2537.3z"/>
					<path class="st15" d="M859,2585c47.8-8.2,82.9-10.7,86.7-34.1c0.9-5.3,2.2-9.8,3.6-13.6c6.4,1.4,19.3,31.8-10.3,59.1
						c-29.5,27.4-54.2,6-73.4-1.8C854.5,2589.9,855.9,2586.9,859,2585z"/>
				</g>
			</g>
			<path class="st16" d="M861.3,1324.1l81.9,1173.3l102.7,11.4l158.7-1121.2L861.3,1324.1z"/>
			<path class="st15" d="M936.8,2476.3c0,0-0.6,27.1,4.3,31.2c4.9,4.1,109.7,14.1,111,5.8c1.3-8.3,14.8-41.9,5.6-44.1
				C1048.5,2466.9,935,2464.9,936.8,2476.3z"/>
		</g>
		<g>
			<g>
				<polygon class="st10" points="1274.2,2504.5 1299.1,2620.4 1368.5,2603.5 1362.9,2486.3 				"/>
				<g>
					<path class="st15" d="M1165.3,2666.3l-11,2.9c0,0-2.8,14.1,2.8,20s10.2,25.2,100.8,14.6c90.5-10.7,130.8-29.6,127.4-45.6
						C1381.8,2642.1,1207.6,2700.5,1165.3,2666.3z"/>
					<path class="st16" d="M1273.1,2585.1c-0.9,4.2-1.4,9-1.3,14.8c0.1,25-36,33.7-84.1,50.4c-13.5,4.7-24.6,9.4-30.7,14.2
						c-28,22,111.8,44,228.4-6.6c2.5-27.2-6.6-72.3-7.5-86.8C1328.5,2578.8,1311.5,2587.1,1273.1,2585.1z"/>
					<path class="st15" d="M1187.5,2650.3c48.2-16.7,84.2-25.4,84.1-50.4c0-5.7,0.5-10.6,1.3-14.8c6.8,0.3,25.5,29.6-0.5,63.2
						c-25.9,33.5-55.2,15.7-76.4,10.8C1183.7,2656.1,1184.7,2652.7,1187.5,2650.3z"/>
				</g>
			</g>
			<path class="st16" d="M929.8,1363.2l74.8,115.3l265,1055.1l101.9-6.1l-78.9-1201.1L929.8,1363.2z"/>
			<path class="st15" d="M1257.5,2518c0,0,4.2,26.8,9.8,29.9c5.6,3.2,110.5-5.7,110.3-14.1c-0.2-8.4,7.1-43.8-2.3-44.4
				C1365.8,2488.8,1253.7,2507,1257.5,2518z"/>
			<polygon class="st15" points="955.9,1403.4 1017.3,1483.5 1125,1963.5 1003.9,1495 			"/>
		</g>
		<g>
			<path class="st17" d="M1158.3,791.7h-130.4c0,0-179,410.8-196.1,530.8c-17.2,120,443.3,131.9,481.4,49.9
				C1351.1,1290.5,1158.3,791.7,1158.3,791.7z"/>
			<g>
				<path class="st14" d="M876,1170.8l-28.8,193c-3.5-3.5-6.5-7.3-8.9-11.1l18.9-126.6C862.8,1208.6,869.2,1190,876,1170.8z"/>
				<path class="st14" d="M939.2,1004.8l-45,387.5c-3.5-1.4-6.8-2.8-10-4.3l40.1-345.6C929.2,1029.8,934.2,1017.2,939.2,1004.8z"/>
				<path class="st14" d="M987.3,887.2l-43.2,520.7c-3.5-0.8-6.9-1.7-10.3-2.6l40.4-486.5C978.7,907.7,983.1,897.2,987.3,887.2z"/>
				<path class="st14" d="M1026.3,795.2l-31,622.2c-3.5-0.5-7-1-10.4-1.5l29.5-593.1C1020.1,809.6,1024.3,800,1026.3,795.2z"/>
				<path class="st14" d="M1057.8,791.7l-10.5,631.2c-3.5-0.3-7-0.5-10.4-0.8l10.5-630.4H1057.8z"/>
				<path class="st14" d="M1099.6,1425c-3.5,0-7-0.1-10.4-0.2l-10.5-633.1h10.5L1099.6,1425z"/>
				<path class="st14" d="M1151.9,1423.7c-3.5,0.2-6.9,0.4-10.4,0.5L1110,791.7h10.5L1151.9,1423.7z"/>
				<path class="st14" d="M1203.8,1418.6c-3.4,0.5-6.9,1-10.4,1.4l-52.1-628.2h10.5L1203.8,1418.6z"/>
				<path class="st14" d="M1254.7,1408.1c-3.3,1-6.7,1.9-10.2,2.7l-65.5-564.1c4.6,12.5,9.8,26.7,15.4,42.4L1254.7,1408.1z"/>
				<path class="st14" d="M1303.1,1385.2c-2.8,2.4-6,4.7-9.6,6.9l-57-382c6.6,19.7,13.1,39.9,19.6,60.2L1303.1,1385.2z"/>
			</g>
		</g>
		<path class="st18" d="M1313.2,1371.9c-13.8,29.9-83.6,47.3-165.9,51.6c21.1-20.7,46.2-52.7,62-97.1
			c30.6-86.5-39.5-498.3-41.8-511.2C1205.3,915.8,1346.2,1300.9,1313.2,1371.9z"/>
		<g>
			<g>
				<path id="Hair_B_00000178204367857702716480000005650292892033283246_" class="st16" d="M1015.5,716.5c3.2,4.6,6.9,8.8,12.7,9.8
					c1.7,0.3,3.5,0.2,5.1,0.5c2.6,0.6,4.9,2,6.7,4c2.1,2.1,4.3,3.9,6.8,5.6c7.6,4.9,17.6,7.6,25.5,2.3c7.4,11.4,21.8,16.2,34.6,11.4
					c1.6-0.6,3.2-1.5,4.7-2.4c2.2-1.4,4.1-3.6,6.7-4c2.7,0,5.3,0.5,7.8,1.4c2,0.4,4,0.7,6,0.7c5.4-0.1,11.4-3.8,11.6-9.4
					c6.7,3.1,14.5-0.2,19.7-5.2c6.6-6.5,10.1-15.6,9.4-24.8c11.8-1.8,20-12.7,18.4-24.6c0.8-0.3,1.6-0.6,2.3-0.9
					c9.7-4.6,13.8-16.3,9.2-26c7-6.5,10.4-16.1,8.9-25.6c-0.3-1.9-0.2-3.8,0.4-5.6c5.2-4,8.3-10,8.5-16.6c0-7.1-4.5-13.4-11.2-15.6
					c0.9-5.2,0.5-10.6-1.1-15.6c-2.1-7.6-8.1-13.4-15.7-15.4c0.1-1.3,0.1-2.5,0-3.8c-0.9-17.2-15.6-30.5-32.8-29.6
					c1.6-8.9-3.8-17.7-11.3-22.3c-9.2-5.6-20.6-5-30.8-3.2c-0.3-7.8-6.2-14.2-13.9-15.1c-5.9-0.5-11.7,2-15.3,6.6
					c-5.7-3.2-12.3-4-18.6-2.3c-5.4,1.8-9.2,6.6-9.9,12.2c-2.9-1.1-6.1-1.5-9.2-1.3c-11.9,0.9-20.8,11.4-19.9,23.3
					c-5.6-3.6-12.3-5-18.9-3.8c-14,2.6-23.2,16.1-20.5,30.1c-9-1.5-18.1,2.6-23.1,10.3c-6,8.9-5.5,20.7-1.9,30.4
					c-8.7,3.2-14.6,11.4-15,20.7c-0.1,8.3,3.3,16.2,9.3,21.9c-7.8-3.8-13.7-10.1-13.9-19.9c-0.1-11.5,8.8-20.1,19.4-22.9
					c0-0.2,0-0.2,0-0.2c-12,1.7-21.4,11.1-21.5,23.1c0,12,8.6,20.2,19.2,23.4c-4.9,3.9-8.4,9.5-9.6,15.7c-3,14.6,6.4,28.8,21,31.8
					C971.5,708.2,993.8,729.8,1015.5,716.5z M1218.2,609.9c-0.6,3.9-2.2,7.5-4.7,10.5c0.1-0.2,0.2-0.4,0.3-0.7
					c0.9-1.8,1.6-3.6,2.1-5.5c0.9-4.4,0.6-9-1.1-13.1c-0.8-2-1.8-3.9-3.1-5.6c-0.7-0.9-2.4-2.6-2.4-2.6s0-0.4,0.1-0.9
					c6.5,3.5,10.1,10.7,9,18L1218.2,609.9z M1100.1,490.9c-3.4,0-6.8,1.1-9.7,2.9l0,0c3-4.3,8.1-6.6,13.2-6.1c8.2,1.1,11.5,7,13,14
					l-0.5-0.1C1113.6,495,1107.2,490.8,1100.1,490.9L1100.1,490.9z M1014.9,715.6c-19.8,9.2-33.2-3.1-37.1-20
					C982.8,711.2,999.2,720,1014.9,715.6l0.2,0.1L1014.9,715.6z"/>
				<path class="st10" d="M1122.6,687.2l8.5,102.1c0,0-32.5,46.5-63.5,10.9l2-68.4L1122.6,687.2z"/>
				<path class="st11" d="M1068.4,773.6c14.8-11.3,39.3-31.9,41.6-46.3c1.1-7.3-4.7-13.6-12.8-18.8l-27.6,23.2L1068.4,773.6z"/>
				<path class="st10" d="M1153.6,694.3c-4.6,11.4-15.4,2.2-15.4,2.2s-38.5,63.4-102,48.6c-50.2-11.7-42-114.7-36.3-157.4
					c4.6,0.1,9.9-1.5,15.6-5.1c7.8,14.8,39.7,24.5,68.6,13.9c21.2-7.7,49.8,17.8,65.6,29.4l-6.6,30.3c0,0,6.5-12.3,19.5-2.2
					C1175.5,664.1,1158.2,682.9,1153.6,694.3z"/>
				<path class="st16" d="M1153.3,657c0,0-3.2,7.7-3,11.4l6.9-1.4l-6.9,5.5l-1.4,13.6C1148.8,686.1,1140.3,665.8,1153.3,657z"/>
				<g>
					<path class="st19" d="M1102,674.5c0.1,4.6-5.4,8.5-12.3,8.8c-7,0.2-12.8-3.3-12.9-7.9c-0.2-4.6,5.4-8.5,12.3-8.8
						S1101.8,669.9,1102,674.5z"/>
					<path class="st19" d="M1028.9,676.1c-1.4,4.4-8,6.2-14.6,3.9c-6.6-2.2-10.8-7.4-9.4-11.9c1.4-4.4,8-6.2,14.6-3.9
						C1026.2,666.4,1030.4,671.8,1028.9,676.1z"/>
					<path class="st16" d="M1072.5,625.1c-0.8-0.6,9.7-12.1,34-3.9c1,0.5,1.2,1.7,0.7,2.6C1106.8,624.7,1074.7,627.8,1072.5,625.1z"
						/>
					<path class="st16" d="M1005.5,618.5c-0.8-0.6,9.7-12.1,34-3.9c1,0.5,1.2,1.7,0.7,2.6C1039.7,618.2,1007.7,621.3,1005.5,618.5z"
						/>
					<path class="st16" d="M1045.4,675.9c-0.6-0.1-1.3-0.3-1.9-0.6c-3.9-1.8-5-6.5-5-6.7c-0.1-0.6,0.1-1.2,0.4-1.7
						c8.2-9.6,8.3-24,8.3-24.1c0-1,0.9-1.9,1.9-1.9c1.1-0.1,1.9,0.9,1.9,1.9c0,0.6-0.1,15.2-8.5,25.8c0.4,1.1,1.3,2.7,2.6,3.1
						c1.3,0.6,2.9,0.3,4.9-0.9c0.9-0.5,2.1-0.2,2.6,0.8c0.5,0.9,0.2,2.1-0.8,2.6C1049.4,675.6,1047.3,676.2,1045.4,675.9z"/>
					<path class="st20" d="M1035.1,692.9c-4.4,9.1,0.3,24.2,16.5,24.7s28.7-11,25.2-18.2S1038.1,686.6,1035.1,692.9z"/>
					<path class="st16" d="M1028.7,640.4c-0.8,6-4.7,10.3-8.7,9.8c-4.1-0.5-6.7-5.7-5.9-11.7c0.8-5.9,4.7-10.3,8.7-9.8
						C1026.8,629.3,1029.5,634.5,1028.7,640.4z"/>
					<path class="st16" d="M1094.8,649.2c-0.8,6-4.7,10.3-8.7,9.8c-4.1-0.5-6.7-5.7-5.9-11.7c0.8-5.9,4.7-10.3,8.7-9.8
						C1093,638.1,1095.6,643.3,1094.8,649.2z"/>
					<path class="st11" d="M1050.9,729.6c-2.3-0.3-4.8-2.1-4.5-2.9c0.2-0.7,22.2-5.7,22.5-5.1c0.3,0.7,0.1,1.6-0.4,2
						C1061.5,729.7,1054.9,730.1,1050.9,729.6z"/>
				</g>
			</g>
		</g>
		<path class="st13" d="M1086.5,814.7c0,0,7.7,21.1,17.6,22.7c12.9,2.2,42.2-20.2,41.2-46.1c0,0-10.9-20.3-15.3-14.4
			c-13.8,18-42.2,21.5-42.2,21.5s-17.7,1-19.5-16.9c-5.1-3.3-22.2,9.8-22.2,9.8s-4.7,34,9.2,39.8
			C1076.3,839.8,1086.5,814.7,1086.5,814.7z"/>
	</g>
	<g id="Hand_00000180342327019472998380000012280724349563817137_">
		<path class="st10" d="M1516.7,741.9c0,0-7.2,14.3-10.8,21c4.8,2.1,59.6,31.2,60.3,31.6c8.2-13.4,17.5-31.9,17.5-31.9
			c12.2-24.6,24.9-50.5,37.2-75.2c3-6,11.3-12.4,5-17.7c-6.4,5.9-13.6,11.3-20,17.3c4-7.4,11.3-19.3,16-28.7c0.9-1.9,1.6-3.9,1.5-6
			c-0.1-2-1.9-5.3-3.8-5.9c-8.6,9.7-18.6,18.9-27.2,28.5c5.2-11.1,9.5-20.2,14.6-31.2c1.1-2.5,3.2-7,3.4-9.7
			c0.2-2.7-1.9-6.1-4.2-7.5c-11.3,13.3-19.1,24.2-30.5,38.9c4.5-10.2,8.4-20.7,11.6-31.3c0.7-2.7,1.6-5.5,1.4-8.3
			c-0.2-2.9-1.6-6.3-4.9-7.3c-13.5,22.9-28.4,47.3-41.9,70.1c-3.5-13.5-6.2-26.8-10.2-39.6c-1.9-6.1-5.8-8.8-10.8-6.9
			C1516.5,694.1,1504,708.3,1516.7,741.9z"/>
		<g>
			<path class="st11" d="M1574.1,665.3c2-3.2,4.1-5.5,4.6-5.1s-0.6,3.2-2.6,6.4s-4.1,5.5-4.6,5.1
				C1570.9,671.3,1572.1,668.5,1574.1,665.3z"/>
		</g>
		<g>
			<path class="st11" d="M1589.9,676.7c2-3.2,4.1-5.5,4.6-5.1s-0.6,3.2-2.6,6.4s-4.1,5.5-4.6,5.1
				C1586.7,682.7,1587.9,679.9,1589.9,676.7z"/>
		</g>
		<g>
			<path class="st11" d="M1603.9,688.4c2-3.2,4.1-5.5,4.6-5.1s-0.6,3.2-2.6,6.4s-4.1,5.5-4.6,5.1
				C1600.7,694.5,1601.9,691.6,1603.9,688.4z"/>
		</g>
		<g>
			<path class="st11" d="M1579,696.1c-8.5-5.1-15.2-9.9-14.8-10.4c0.4-0.5,7.5,3.2,16.1,8.4c8.5,5.1,15.2,9.9,14.8,10.4
				C1594.7,705,1587.4,701.3,1579,696.1z"/>
		</g>
		<g>
			<path class="st11" d="M1552.5,719.6c1.3-3.7,2-9.1,0.3-14.9c-3.5-11.5-12.3-17.8-11.6-18.2c0.2-0.3,2.5,1,5.5,3.8
				c2.9,2.9,6.7,7.5,8.4,13.8c1.7,6.3,0.7,12.4-1.1,16.1c-1.6,3.8-3.4,5.8-3.6,5.6C1550,725.6,1551.3,723.3,1552.5,719.6z"/>
		</g>
		<g>
			<path class="st11" d="M1542.5,758.9c13,6.7,24.9,8.5,24.7,9.1c0,0.6-12.4-0.1-25.8-7c-13.6-6.8-20.9-17.1-20.4-17.3
				C1521.6,743.1,1529.4,752.3,1542.5,758.9z"/>
		</g>
	</g>
	<path class="st13" d="M1158.3,791.2l18.1,0.1L1335.1,950l170.7-197.5l73.3,39.2c0,0-180.4,347.8-233.4,355.8
		c-53.8-7.4-91-46.6-109.3-85.3C1211.8,993.4,1158.3,791.2,1158.3,791.2z"/>
	<path class="st14" d="M1335.3,956.5c0,0-9.3,42.8,1.1,68.4C1346.9,1050.6,1345,961.4,1335.3,956.5z"/>
	<g>
		<path class="st0" d="M490.2,497.8c2,2.3,46.7,44.9,46.7,44.9l-2.1,3.1l-63.6-29.2L490.2,497.8z"/>
		<polygon class="st1" points="416.2,525.6 525,579.7 521.6,585.5 408.8,559.9 		"/>
		<polygon class="st0" points="434.3,616.5 515.5,605.9 515.5,615 441.2,646.2 		"/>
	</g>
</g>
<g id="Other_00000078022372037220716910000016010429805361858219_">
	<path class="st0" d="M2470.6,2054.8c-5.9,1.6-4.4,10,1.4,10.4c9.1,0.5,18.9,0.9,26.2,7.3c7.8,6.9,8,18.5,1.6,26.4
		c-17,20.9-46.5-9.9-28.7-28.6c2.3-2.4-1.3-6-3.7-3.7c-10.8,10.3-14.9,26.4-4.6,38.8c9.7,11.7,28.4,14.2,40.4,4.9
		C2532.4,2087.8,2502.1,2046.1,2470.6,2054.8z"/>
	<path class="st0" d="M662.6,1099.8c23.2,30.5,51.4,59.4,79.6,85.2c6,5.5,16-2.5,11.1-9.4c-21.9-31.1-47-63-74.1-89.7
		C670.6,1077.3,655.1,1089.9,662.6,1099.8z"/>
	<path class="st0" d="M2369.5,1697.8c-4,38.1-3.3,78.4-0.5,116.5c0.6,8.1,13.3,9.1,14.5,0.8c5.4-37.7,9-78.1,7.5-116.2
		C2390.6,1686.9,2370.8,1685.4,2369.5,1697.8z"/>
	<path class="st0" d="M624.6,1052.5c0.4-0.1,0.9-0.3,1.3-0.4c0,0,0.1,0,0.1,0c1.1-0.5,2.1-0.9,3.2-1.4c0.6-0.3,1.1-0.7,1.5-1.2
		c0.6-0.3,1-0.7,1.4-1.1c0.2-0.2,0.3-0.4,0.5-0.6c0.7-0.9,1.4-1.9,2.1-2.8c1-1.6,1.5-3.3,1.5-5.1c0.3-1.2,0.3-2.3-0.1-3.5
		c-0.1-1.7-0.7-3.4-1.7-4.9c-0.7-0.9-1.4-1.8-2.1-2.7c-0.9-0.7-1.9-1.4-2.8-2.1c-1.6-1-3.3-1.5-5.1-1.5c-1.8-0.4-3.5-0.2-5.2,0.3
		c-0.2,0-0.5,0.1-0.7,0.2c-1.2,0.3-2.4,0.8-3.4,1.5c-0.5,0.3-1,0.7-1.4,1.1c-0.5,0.3-1,0.7-1.5,1.2c-0.3,0.3-0.7,0.6-1,1
		c-0.7,0.9-1.4,1.8-2.1,2.8c-1,1.6-1.5,3.3-1.5,5.1c-0.3,1.2-0.3,2.3,0.1,3.5c0.1,1.7,0.7,3.3,1.6,4.8c0.7,0.9,1.4,1.8,2.1,2.7
		c0.9,0.7,1.8,1.4,2.8,2.1c1.6,1,3.3,1.5,5.1,1.5C621.1,1053.2,622.9,1053.1,624.6,1052.5z"/>
</g>
<g id="Coins_00000000205817209838492890000014124192756039509648_">
	<g>
		<path class="st4" d="M2423.1,1903.2c24.9,36.5,15.5,86.2-20.9,111.1c-36.5,24.9-86.2,15.5-111.1-20.9
			c-24.9-36.5-15.5-86.2,20.9-111.1C2348.5,1857.3,2398.2,1866.7,2423.1,1903.2z"/>
		<path class="st1" d="M2425.1,1889.8c24.9,36.5,15.5,86.2-20.9,111.1c-36.5,24.9-86.2,15.5-111.1-20.9
			c-24.9-36.5-15.5-86.2,20.9-111.1C2350.4,1844,2400.2,1853.3,2425.1,1889.8z"/>
		<path class="st0" d="M2415.3,1896.4c21.2,31.1,13.2,73.5-17.9,94.7c-31.1,21.2-73.5,13.2-94.7-17.9s-13.2-73.5,17.9-94.7
			C2351.7,1857.3,2394.2,1865.3,2415.3,1896.4z"/>
		<g>
			<path class="st1" d="M2393.9,1941.8c-1,5.4-4.2,10.7-9.7,15.8l6.1,9l-9.7,6.6l-5.9-8.7c-4.2,2.5-8.5,4.4-12.9,5.8
				c-4.3,1.4-8.3,2-11.8,2.1l-2.8-15.4c3.6-0.1,7.5-0.8,11.5-2c4-1.3,7.7-3,10.9-5.2c6.2-4.2,8.2-7.8,6.1-10.9
				c-1.1-1.6-2.8-2.2-5.1-1.8c-2.3,0.4-5.6,1.5-10.1,3.3c-4.9,2-9.1,3.4-12.7,4.3c-3.6,0.9-7.2,0.9-10.8-0.1
				c-3.7-0.9-6.8-3.4-9.5-7.3c-3.2-4.7-4.2-9.7-3.1-15.4c1.1-5.6,4.5-10.9,10.3-16l-6.1-8.9l9.7-6.6l6,8.7c3.2-1.8,6.6-3.3,9.9-4.5
				c3.4-1.1,6.6-1.8,9.7-2l3.2,15.3c-7.4,0.8-13.6,2.8-18.7,6.3c-3.2,2.1-5.2,4.2-6,6.1c-0.8,1.9-0.7,3.7,0.3,5.2s2.7,2,4.9,1.6
				c2.3-0.4,5.6-1.5,9.9-3.3c4.9-2,9.2-3.5,12.7-4.3c3.6-0.9,7.1-0.9,10.8,0c3.6,0.9,6.8,3.3,9.5,7.2
				C2393.9,1931.4,2394.9,1936.3,2393.9,1941.8z"/>
		</g>
	</g>
	<g>
		<path class="st4" d="M1700.6,2145.6c-7.6,40.2-44.5,69.5-82.3,65.3c-37.8-4.2-62.4-40.3-54.8-80.5c7.6-40.2,44.5-69.5,82.4-65.3
			C1683.8,2069.2,1708.3,2105.3,1700.6,2145.6z"/>
		<path class="st1" d="M1690.3,2136.8c-7.6,40.2-44.5,69.5-82.4,65.3c-37.8-4.2-62.4-40.3-54.8-80.5c7.6-40.2,44.5-69.5,82.3-65.3
			S1698,2096.6,1690.3,2136.8z"/>
		<path class="st0" d="M1680.2,2135.7c-6.5,34.3-37.9,59.3-70.3,55.7c-32.3-3.6-53.2-34.3-46.7-68.6s37.9-59.3,70.3-55.7
			C1665.8,2070.6,1686.8,2101.4,1680.2,2135.7z"/>
		<g>
			<path class="st1" d="M1638.8,2154.7c-4,3.2-9.3,5-15.8,5.4l-1.9,9.9l-10.1-1.2l1.8-9.6c-4.1-0.8-8-2-11.5-3.6
				c-3.5-1.6-6.3-3.5-8.5-5.5l8-12.4c2.2,2.1,5.1,3.9,8.3,5.5c3.3,1.5,6.5,2.5,9.9,2.8c6.3,0.7,9.9-0.6,10.5-4
				c0.4-1.8-0.4-3.2-2-4.3c-1.6-1.1-4.4-2.3-8.2-3.7c-4.2-1.5-7.7-3-10.5-4.5s-4.9-3.7-6.5-6.4c-1.7-2.8-2.1-6.3-1.3-10.7
				c1-5.1,3.6-9.3,7.7-12.6c4.2-3.2,9.6-4.9,16.4-5.1l1.9-9.8l10.1,1.2l-1.8,9.7c3.1,0.6,6.1,1.6,8.8,2.8s5.2,2.7,7.2,4.4l-7.6,12.6
				c-5-3.8-10.1-6.1-15.4-6.7c-3.3-0.4-5.8-0.1-7.5,0.7c-1.7,0.9-2.7,2.1-3,3.8c-0.4,1.6,0.4,3,2,4c1.6,1.1,4.4,2.2,8.1,3.6
				c4.3,1.5,7.8,2.9,10.5,4.5c2.8,1.4,4.9,3.7,6.5,6.3c1.7,2.8,2.1,6.3,1.3,10.6C1645.3,2147.4,1642.8,2151.4,1638.8,2154.7z"/>
		</g>
	</g>
</g>
</svg>
