<svg id="Capa_1" data-name="Capa 1" xmlns="http://www.w3.org/2000/svg" viewBox="0 0 43.28 124.62"><defs><style>.cls-1{fill:#311b0e;}.cls-2{fill:#402518;}.cls-3{fill:#4f2d20;}.cls-4{fill:#e8b487;}.cls-5{fill:#140e0c;}.cls-6{fill:#de3830;}.cls-17,.cls-7{fill:#fff;}.cls-10,.cls-11,.cls-12,.cls-14,.cls-15,.cls-16,.cls-18,.cls-7,.cls-9{fill-rule:evenodd;}.cls-11,.cls-8{fill:#dcdcdc;}.cls-9{fill:#04000e;}.cls-10,.cls-13{fill:#171110;}.cls-12{fill:#3a3035;}.cls-14{fill:#0c0603;}.cls-15{fill:#1d1d1b;}.cls-16{fill:#c6c6c6;}.cls-18{fill:#dadada;}.cls-19{fill:#2d2527;}.cls-20{opacity:0.33;}.cls-21{fill:#822417;}.cls-22{fill:#6a3d30;}.cls-23{fill:#7f493b;}</style></defs><path class="cls-1" d="M279.92,167.14l0-1.06c4.84-.16,8.14-4.87,10.05-8.8A44,44,0,0,0,294,141.09c1.16-25.61.89-39.84.89-40l1.06,0c0,.15.28,14.41-.89,40.06C294.57,151.84,289,166.84,279.92,167.14Z" transform="translate(-257.75 -42.55)"/><path class="cls-1" d="M276.09,51.63s-3,3.35-2.35,5.74,1.69,3.93.77,5.34-2.15,3-2.06,4.47.53,2-.89,3.13a5,5,0,0,0-1.81,4.18,5,5,0,0,1-1.44,4s1.94-.47,2.18-2.15A7.18,7.18,0,0,1,272.33,72c1.08-.94,1.89-1.62,1.95-3.44s1-2.64,2.26-4.21,2.6-2.7,2.4-4.41a10.43,10.43,0,0,1,.27-4c.41-1.45,2.13-3.78-1.59-4.63C275.61,50.81,277.46,51.51,276.09,51.63Z" transform="translate(-257.75 -42.55)"/><path class="cls-1" d="M274.26,50.93s-3,3.35-2.35,5.74,1.7,3.93.77,5.34-2.15,3-2.06,4.47.53,2-.89,3.13a5,5,0,0,0-1.81,4.18,5,5,0,0,1-1.44,4s1.95-.47,2.18-2.15a7.19,7.19,0,0,1,1.85-4.34c1.07-.94,1.88-1.61,1.94-3.44s1-2.64,2.26-4.21,2.6-2.69,2.4-4.41a10.65,10.65,0,0,1,.27-4c.41-1.45,2.14-3.78-1.59-4.63C273.78,50.11,275.63,50.81,274.26,50.93Z" transform="translate(-257.75 -42.55)"/><path class="cls-1" d="M278.55,53.45s-.37,3.48-2.46,4.82-3.89,1.8-4.14,3.46-.42,3.68-1.45,4.7-1.72,1.13-1.42,2.92a5.06,5.06,0,0,1-1.45,4.33,5,5,0,0,0-1.6,3.94,2.94,2.94,0,0,1-.18-3.06,7.22,7.22,0,0,0,1.52-4.46c-.17-1.42-.33-2.46.85-3.86s1-2.65,1.13-4.64-.14-3.75,1.15-4.89a10.65,10.65,0,0,0,2.5-3.18c.66-1.36.93-4.25,4.28-2.39C279.08,52.14,277.61,52.45,278.55,53.45Z" transform="translate(-257.75 -42.55)"/><path class="cls-2" d="M272.7,57.55c1.19-1.74-1.17-4.51,2.22-7.59,1.61-1.45,3.82-1.15,2.6,3.68-1.07,4.2-5.15,7.24-6.36,13.79-.37,2-.91,5.31-2,6.67a6.81,6.81,0,0,0-1.87,4.64s-2.07-2.07-.87-3.67c4.46-5.94.58-3.18,2.7-8.32.76-1.86.1-3.39.42-4.66C270.28,59.1,272,59.68,272.7,57.55Z" transform="translate(-257.75 -42.55)"/><path class="cls-3" d="M277.37,59.34c.28-2.1,2.84-2.82,2.37-7.37-.22-2.16-3.88-4.84-6.19-.43-2,3.84,3.09,10.94-2.73,16.56C269.33,69.53,269,72.28,269,74a6.81,6.81,0,0,1-1.7,4.71s2.92-.17,3.1-2.15c.64-7.41,1.68-2.77,3.54-8,.68-1.89,2.18-2.59,2.8-3.75C278.13,62.11,276.44,61.37,277.37,59.34Z" transform="translate(-257.75 -42.55)"/><path class="cls-3" d="M272,55.27s1.63,4.39,5.7,4.5l1.55.32-6.42-7.15Z" transform="translate(-257.75 -42.55)"/><path class="cls-3" d="M286.14,55.58s-2,4.36-5.48,4.19l-1.56.32,6.42-7.15Z" transform="translate(-257.75 -42.55)"/><path class="cls-4" d="M286.1,52c0,4.49-3.17,8.12-7.09,8.12s-7.09-3.63-7.09-8.12,3.18-8.12,7.09-8.12S286.1,47.49,286.1,52Z" transform="translate(-257.75 -42.55)"/><path class="cls-3" d="M274.72,47.24a3.73,3.73,0,0,1,3.82.59c3.88,3.08,7.06,2.8,6.42,7.87-.17,1.37,0,2.3,1.18-.12.83-1.67.66-5.86.67-6.77,0-3.12-3.8-7.68-9.86-5.84C275.17,43.52,274,43.84,274.72,47.24Z" transform="translate(-257.75 -42.55)"/><path class="cls-3" d="M276.13,46.65a12.83,12.83,0,0,0-2.3,5c-.48,2.47-.71,3.24.13,5.59.78,2.17-1.56-.63-2.19-2.38s-.37-5.11-.37-6c0-3.12,1.76-4.42,3.49-4S276.35,44.76,276.13,46.65Z" transform="translate(-257.75 -42.55)"/><path class="cls-3" d="M276.07,47.38s-.54,6.83-3.73,7.81a8.82,8.82,0,0,1-.49-7.56c1.34-3.47,4-2.76,4-2.76s2.22-3,6.29-1.12c5.3,2.46,4.77,10.17,4.77,10.17S278.13,55.75,276.07,47.38Z" transform="translate(-257.75 -42.55)"/><path class="cls-1" d="M286.66,49.71a8.64,8.64,0,0,0-4.44-6.12,6.32,6.32,0,0,0-2.64-.63,6.71,6.71,0,0,0-4.27,1.68c-.09,0,.26,0,0,0-.91,0-2.59.38-3.56,2.91a9.12,9.12,0,0,0,.51,7.75l0,.06h.07c1.34-.42,2.42-1.93,3.13-4.37a19.13,19.13,0,0,0,.61-3c1.62,5.42,6.2,6.25,8.83,6.25a11.44,11.44,0,0,0,2-.17l.09,0v-.12A16.08,16.08,0,0,0,286.66,49.71Zm-4.51-5.81c2.15,1,3.6,3,4.29,5.9a15.21,15.21,0,0,1,.38,2.54c-1.32-7.06-4.61-8.6-7.22-8.6a8.11,8.11,0,0,0-3,.63,4.65,4.65,0,0,1,3-1.09A6.16,6.16,0,0,1,282.15,43.9Zm-9.65,9.87c.18-2,.85-5.82,3.33-8.24v.2C274.25,47.62,273,51.74,272.5,53.77Zm3.33-7.61c-.37,1.51-1.52,5.82-3.25,8.28C273,52.8,274.22,48.27,275.83,46.16Zm-2.73,1.47a4.17,4.17,0,0,1,2.32-2.09,12.49,12.49,0,0,0-2.78,5.8,18.81,18.81,0,0,0-.36,2.32A10.82,10.82,0,0,1,273.1,47.63Zm3-2.17,0,0,0,0Zm-.06-.38V45a8.69,8.69,0,0,1,1.42-.12c3.61,0,6,2.47,7.32,4.53a17.46,17.46,0,0,1,1.7,3.39,17.17,17.17,0,0,0-6.66-6.61,9.54,9.54,0,0,0-3.52-1.1l.05,0Zm.88-.5a7.89,7.89,0,0,1,2.7-.52c2.55,0,5.76,1.52,7,8.51a19.11,19.11,0,0,0-1.69-3.36c-1.38-2.12-3.8-4.65-7.5-4.65Zm9.54,8.7a122.59,122.59,0,0,0-9.76-7.8,10,10,0,0,1,3,1A17.11,17.11,0,0,1,286.44,53.28Zm-10.22-7.75a116.73,116.73,0,0,1,10.27,8.17c-5.05-.76-9.78-7.33-10.3-8.07Zm3.12,4.24a16.16,16.16,0,0,0,5.92,4c-2.49-.25-6.68-1.56-8.81-7.31A30.67,30.67,0,0,0,279.34,49.77ZM272,47.71c.92-2.39,2.5-2.74,3.36-2.74h.1l.34.08v.05h-.24l.09,0a4.27,4.27,0,0,0-2.69,2.27c-.9,1.69-1.16,4.08-.77,7.12A8.69,8.69,0,0,1,272,47.71Zm.57,7.25c1.71-2.21,2.89-6.23,3.39-8.16l0,.57C275.92,47.72,275.34,53.82,272.52,55Zm3.66-7.62-.08-1.2a11.48,11.48,0,0,0,5.16,6.67,10.53,10.53,0,0,0,3,1.1C281.53,53.75,277.48,52.6,276.18,47.34Z" transform="translate(-257.75 -42.55)"/><path class="cls-4" d="M276.7,58.37s.92,2.42,0,3.68,5.23.8,4.89.16a6,6,0,0,1-.15-3.84S278.87,58.45,276.7,58.37Z" transform="translate(-257.75 -42.55)"/><path class="cls-4" d="M274.39,122.24a4.11,4.11,0,0,0-.47,1c-.71,2-.49,7.71.13,11.58a65.9,65.9,0,0,1,.51,9.59l3.4.17A79.43,79.43,0,0,1,278,133c.63-6.23.31-7.61,0-10.52C277.53,121.47,274.8,121.5,274.39,122.24Z" transform="translate(-257.75 -42.55)"/><path class="cls-4" d="M274,123c.12,1.25,3.75,1.49,3.94-.57,0-4.2,1.27-18.31,1-22.54,0,0-6.71-6.66-7.63-1.16-.63,3.69.9,12.83,1.24,17.12A44.63,44.63,0,0,0,274,123Z" transform="translate(-257.75 -42.55)"/><path class="cls-4" d="M274.71,143.62a26,26,0,0,1-1.18,5.63c-.6,1.75.18,2.51,3.84,2.09.55-.06,1.89-.39,1.41-2.29a14.51,14.51,0,0,1-.56-3.65,7.64,7.64,0,0,0-.85-2.14Z" transform="translate(-257.75 -42.55)"/><path class="cls-4" d="M283.85,122.24a4.11,4.11,0,0,1,.47,1c.7,2,.49,7.71-.14,11.58a66.83,66.83,0,0,0-.5,9.59l-3.4.17a80.13,80.13,0,0,0,0-11.58,36,36,0,0,1,0-10.52C280.71,121.47,283.44,121.5,283.85,122.24Z" transform="translate(-257.75 -42.55)"/><path class="cls-4" d="M284.23,123c-.11,1.25-3.74,1.49-3.93-.57,0-4.2-1.28-18.31-1-22.54,0,0,6.7-6.66,7.63-1.16.62,3.69-.9,12.83-1.24,17.12A43.53,43.53,0,0,1,284.23,123Z" transform="translate(-257.75 -42.55)"/><path class="cls-4" d="M283.57,143.62a23.61,23.61,0,0,0,1.1,5.72c.6,1.75-.1,2.42-3.76,2-.55-.06-1.89-.39-1.41-2.29a14.51,14.51,0,0,0,.56-3.65,7.64,7.64,0,0,1,.85-2.14Z" transform="translate(-257.75 -42.55)"/><path class="cls-4" d="M281.9,77.07c-.2-2.42,2.57-6,3.54-7.9a10.5,10.5,0,0,0,1-5.94c-.59-.37-7.35-1.48-7.35-1.48s-6.76,1.11-7.36,1.48a10.09,10.09,0,0,0,.59,6.26c.95,1.82,3.59,8.78,3.4,11.18-.15,1.87-2.76,5-3.16,8-.83,6.4-1.85,8.81-1.28,13.69.19,1.6,6.73-3.34,7.39-1.38a.93.93,0,0,0,.42,0,.93.93,0,0,0,.42,0c.66-2,7.2,3,7.39,1.38.58-5-.44-7.61-1.28-14.06C285.18,85.17,282,78.76,281.9,77.07Z" transform="translate(-257.75 -42.55)"/><path class="cls-5" d="M286.14,91H272.09a41.93,41.93,0,0,0-.93,9.38c-.13,4.28,1.08,11.76,1.38,15.52.15,2,1,5.45,1.09,7.18s-.73,5.91.42,11.77a40.14,40.14,0,0,1,.49,6.27h3.25A66.05,66.05,0,0,1,278,133c.63-6.23.31-7.61,0-10.52v0h0c0-3.89,1.09-16.28,1-21.44a.66.66,0,0,0,.15,0,.57.57,0,0,0,.15,0c-.06,5.16,1.05,17.55,1,21.44h0v0a36,36,0,0,0,0,10.52,68.22,68.22,0,0,1,.2,8.09h3.25a40.21,40.21,0,0,1,.48-6.27,54.08,54.08,0,0,0,.58-11.59c0-2.32.79-5.4.94-7.36.3-3.76,1.51-11.24,1.38-15.52A41.29,41.29,0,0,0,286.14,91Z" transform="translate(-257.75 -42.55)"/><path class="cls-6" d="M273.3,62.81a25.6,25.6,0,0,1,.12,6.56,9.77,9.77,0,0,0-.35,3c.21,2.71,1,6.44.85,8.6a49.39,49.39,0,0,1-1.2,6.31s3.79.67,12.72-.19c0,0-1.24-6-1.28-6.6-.2-3.18.51-5.68.73-7.81a12.65,12.65,0,0,0-.18-3.17s-1.06-1.87,0-6.69l-1.18-.24s-.05,6.08-4.19,6.12c-4.6,0-4.2-2.67-4.83-6.12Z" transform="translate(-257.75 -42.55)"/><path class="cls-7" d="M274.29,144.39l.14-1h3.62l.1,1.1S274.56,145.65,274.29,144.39Z" transform="translate(-257.75 -42.55)"/><path class="cls-8" d="M273,150.54a15.44,15.44,0,0,0,0,3,2.72,2.72,0,0,0,3.18,2.66l0-.86S273,150.69,273,150.54Z" transform="translate(-257.75 -42.55)"/><path class="cls-8" d="M279.15,150.54a16,16,0,0,1,0,3,2.72,2.72,0,0,1-3.18,2.66l-.05-.86S279.17,150.69,279.15,150.54Z" transform="translate(-257.75 -42.55)"/><path class="cls-9" d="M274.18,144.93a4.89,4.89,0,0,1,3.73,0,8.9,8.9,0,0,1-.58,2.16,5.47,5.47,0,0,1-2.18.65C275.09,147.69,274.18,144.93,274.18,144.93Z" transform="translate(-257.75 -42.55)"/><path class="cls-10" d="M278.4,145.89c0-3.4-.89-.73-1-.43-.13.52-2.54.52-2.67,0-.07-.3-.86-3.28-1,.55a44.76,44.76,0,0,0-.65,6.75c.39,2.39.65,2.66,3,2.66s2.8-.43,3-2.66A46.34,46.34,0,0,0,278.4,145.89Z" transform="translate(-257.75 -42.55)"/><path class="cls-11" d="M277,155.36c0,.35-.33.36-.74.36s-.74,0-.74-.36a.75.75,0,0,1,1.48,0Z" transform="translate(-257.75 -42.55)"/><path class="cls-12" d="M279.11,152.76a12.6,12.6,0,0,0-.08-2.19,3,3,0,0,0-.41-.28c-.74-.48-2.09-1.85-1.58.43a4.44,4.44,0,0,1,1.25,4.3C278.81,154.66,279,154,279.11,152.76Z" transform="translate(-257.75 -42.55)"/><path class="cls-12" d="M273.19,150.34a3.12,3.12,0,0,1,1.74-2.19l0-.77c-.65.13-1.17.85-1.53,1.53.48-1.75,1.51-2,1.51-2l0-.9a3.74,3.74,0,0,0-1.3,1.36c-.12.84-.26,1.94-.36,3Z" transform="translate(-257.75 -42.55)"/><path class="cls-12" d="M277.33,146.91s1,.25,1.51,2c-.36-.68-.88-1.4-1.53-1.53l0,.77a3.07,3.07,0,0,1,1.72,2.13c-.1-1-.25-2.13-.38-3a3.59,3.59,0,0,0-1.27-1.3Z" transform="translate(-257.75 -42.55)"/><path class="cls-12" d="M275.17,150.72c.77-2.57-.84-.91-1.59-.43l-.42.29a13.11,13.11,0,0,0-.06,2.18c.2,1.24.37,1.91.82,2.26A3.79,3.79,0,0,1,275.17,150.72Z" transform="translate(-257.75 -42.55)"/><path class="cls-13" d="M275,145.14s.31,6.15.78,6.85.85-.09,1.15-2.35.55-4.6.55-4.6a1,1,0,0,0-.66-1.11C275.91,143.61,274.68,144.09,275,145.14Z" transform="translate(-257.75 -42.55)"/><path class="cls-14" d="M275.58,145.74s-.1-.38-.73-.27a43.66,43.66,0,0,0,.32,5.25c.29,1.43.44,2.12,1.19,2s.94-2.08,1.14-3.67.22-3.5.22-3.5a.65.65,0,0,0-.81.2s-.12,6.44-.67,6.59S275.46,147.2,275.58,145.74Z" transform="translate(-257.75 -42.55)"/><path class="cls-7" d="M276.88,146.6a.25.25,0,0,0,.32-.07.19.19,0,0,0-.08-.28.26.26,0,0,0-.32.07A.2.2,0,0,0,276.88,146.6Z" transform="translate(-257.75 -42.55)"/><path class="cls-15" d="M276.91,146.57a.21.21,0,0,0,.25-.06.15.15,0,0,0-.07-.22.19.19,0,0,0-.25.06A.16.16,0,0,0,276.91,146.57Z" transform="translate(-257.75 -42.55)"/><path class="cls-7" d="M276.78,148a.26.26,0,0,0,.32,0,.19.19,0,0,0-.05-.28.25.25,0,0,0-.32,0A.2.2,0,0,0,276.78,148Z" transform="translate(-257.75 -42.55)"/><path class="cls-15" d="M276.81,148a.19.19,0,0,0,.25,0,.15.15,0,0,0,0-.23.2.2,0,0,0-.25,0A.14.14,0,0,0,276.81,148Z" transform="translate(-257.75 -42.55)"/><path class="cls-7" d="M276.59,149.36a.26.26,0,0,0,.33,0,.2.2,0,0,0,0-.29.27.27,0,0,0-.33,0A.2.2,0,0,0,276.59,149.36Z" transform="translate(-257.75 -42.55)"/><path class="cls-15" d="M276.63,149.33a.18.18,0,0,0,.25,0,.14.14,0,0,0,0-.22.21.21,0,0,0-.26,0A.15.15,0,0,0,276.63,149.33Z" transform="translate(-257.75 -42.55)"/><path class="cls-7" d="M276.52,150.72a.24.24,0,0,0,.32,0,.18.18,0,0,0,0-.28.24.24,0,0,0-.32,0A.18.18,0,0,0,276.52,150.72Z" transform="translate(-257.75 -42.55)"/><path class="cls-15" d="M276.56,150.69a.19.19,0,0,0,.25,0,.15.15,0,0,0,0-.23.2.2,0,0,0-.25,0A.14.14,0,0,0,276.56,150.69Z" transform="translate(-257.75 -42.55)"/><path class="cls-7" d="M276.88,147.25a.25.25,0,0,0,.31-.08.19.19,0,0,0-.08-.27.25.25,0,0,0-.32.07A.19.19,0,0,0,276.88,147.25Z" transform="translate(-257.75 -42.55)"/><path class="cls-15" d="M276.9,147.21a.19.19,0,0,0,.25-.06.15.15,0,0,0-.07-.22.2.2,0,0,0-.25.06A.15.15,0,0,0,276.9,147.21Z" transform="translate(-257.75 -42.55)"/><path class="cls-7" d="M276.73,148.66a.24.24,0,0,0,.32,0,.18.18,0,0,0-.05-.28.25.25,0,0,0-.32,0A.19.19,0,0,0,276.73,148.66Z" transform="translate(-257.75 -42.55)"/><path class="cls-15" d="M276.76,148.63a.19.19,0,0,0,.25,0,.14.14,0,0,0,0-.22.21.21,0,0,0-.26,0A.16.16,0,0,0,276.76,148.63Z" transform="translate(-257.75 -42.55)"/><path class="cls-7" d="M276.56,150a.26.26,0,0,0,.33,0,.19.19,0,0,0,0-.29.26.26,0,0,0-.32,0A.19.19,0,0,0,276.56,150Z" transform="translate(-257.75 -42.55)"/><path class="cls-15" d="M276.6,150a.2.2,0,0,0,.25,0,.15.15,0,0,0,0-.23.21.21,0,0,0-.26,0A.15.15,0,0,0,276.6,150Z" transform="translate(-257.75 -42.55)"/><path class="cls-7" d="M276.36,151.36a.26.26,0,0,0,.32,0,.2.2,0,0,0,.05-.29.25.25,0,0,0-.32,0A.18.18,0,0,0,276.36,151.36Z" transform="translate(-257.75 -42.55)"/><path class="cls-15" d="M276.4,151.34a.19.19,0,0,0,.25,0,.14.14,0,0,0,0-.22.2.2,0,0,0-.26,0A.16.16,0,0,0,276.4,151.34Z" transform="translate(-257.75 -42.55)"/><path class="cls-7" d="M275.41,146.6a.25.25,0,0,1-.31-.07.2.2,0,0,1,.08-.28.26.26,0,0,1,.32.07A.2.2,0,0,1,275.41,146.6Z" transform="translate(-257.75 -42.55)"/><path class="cls-15" d="M275.39,146.57a.21.21,0,0,1-.25-.06.15.15,0,0,1,.07-.22.19.19,0,0,1,.25.06A.15.15,0,0,1,275.39,146.57Z" transform="translate(-257.75 -42.55)"/><path class="cls-16" d="M277,147.07c-.05-.09-.05-.13-.36,0-.63.22-1-.36-1.19-.7,0,0-.39,0-.27.25,0,0,.52.83,1,.78h0a1.12,1.12,0,0,0,.36,0C277.06,147.27,277.06,147.14,277,147.07Z" transform="translate(-257.75 -42.55)"/><path class="cls-7" d="M275.52,148a.26.26,0,0,1-.32,0,.18.18,0,0,1,.05-.28.24.24,0,0,1,.32,0A.19.19,0,0,1,275.52,148Z" transform="translate(-257.75 -42.55)"/><path class="cls-15" d="M275.49,148a.19.19,0,0,1-.25,0,.16.16,0,0,1,0-.23.2.2,0,0,1,.25,0A.14.14,0,0,1,275.49,148Z" transform="translate(-257.75 -42.55)"/><path class="cls-16" d="M276.89,148.5c0-.09,0-.16-.36-.06a.58.58,0,0,1-.18,0c-.46-.13-.45-.31-.82-.73,0,0-.38,0-.23.28a3,3,0,0,0,.48.46c0,.14.17.28.6.25S276.92,148.58,276.89,148.5Z" transform="translate(-257.75 -42.55)"/><path class="cls-7" d="M275.71,149.36a.26.26,0,0,1-.33,0,.2.2,0,0,1,0-.29.27.27,0,0,1,.33,0A.2.2,0,0,1,275.71,149.36Z" transform="translate(-257.75 -42.55)"/><path class="cls-15" d="M275.67,149.33a.18.18,0,0,1-.25,0,.14.14,0,0,1,0-.22.2.2,0,0,1,.25,0A.15.15,0,0,1,275.67,149.33Z" transform="translate(-257.75 -42.55)"/><path class="cls-16" d="M276.74,149.87c0-.05,0-.1-.08-.11l-.06,0c-.52-.08-.49-.23-.92-.63,0,0-.38,0-.19.31l.22.19C276.47,150.25,276.77,150,276.74,149.87Z" transform="translate(-257.75 -42.55)"/><path class="cls-7" d="M275.79,150.72a.26.26,0,0,1-.33,0,.18.18,0,0,1,0-.28.24.24,0,0,1,.32,0A.19.19,0,0,1,275.79,150.72Z" transform="translate(-257.75 -42.55)"/><path class="cls-15" d="M275.75,150.69a.2.2,0,0,1-.26,0,.15.15,0,0,1,0-.23.2.2,0,0,1,.25,0A.14.14,0,0,1,275.75,150.69Z" transform="translate(-257.75 -42.55)"/><path class="cls-16" d="M276.57,151.09c-.43-.11-.37-.27-.86-.62,0,0-.37.1-.13.33a1.9,1.9,0,0,0,.93.54l.12,0S276.75,151.14,276.57,151.09Z" transform="translate(-257.75 -42.55)"/><path class="cls-7" d="M275.43,147.25a.26.26,0,0,1-.32-.08.19.19,0,0,1,.09-.27.23.23,0,0,1,.31.07A.2.2,0,0,1,275.43,147.25Z" transform="translate(-257.75 -42.55)"/><path class="cls-15" d="M275.4,147.21a.19.19,0,0,1-.25-.06.16.16,0,0,1,.07-.22.2.2,0,0,1,.25.06A.15.15,0,0,1,275.4,147.21Z" transform="translate(-257.75 -42.55)"/><path class="cls-7" d="M276.84,146.35c-.23.34-.27.52-.45.66a.62.62,0,0,1-.74,0c-.31-.14-.31-.07-.36,0s0,.16.48.29c.87.2,1.34-.76,1.34-.76C277.23,146.3,276.84,146.35,276.84,146.35Z" transform="translate(-257.75 -42.55)"/><path class="cls-7" d="M275.57,148.66a.25.25,0,0,1-.32,0,.18.18,0,0,1,.05-.28.25.25,0,0,1,.32,0A.19.19,0,0,1,275.57,148.66Z" transform="translate(-257.75 -42.55)"/><path class="cls-15" d="M275.54,148.63a.19.19,0,0,1-.25,0,.14.14,0,0,1,0-.22.2.2,0,0,1,.25,0A.16.16,0,0,1,275.54,148.63Z" transform="translate(-257.75 -42.55)"/><path class="cls-17" d="M277,148c.16-.28-.23-.28-.23-.28-.37.43-.27.59-.79.72a.42.42,0,0,1-.21,0c-.33-.1-.32,0-.36.06s0,.2.51.24A1.27,1.27,0,0,0,277,148Z" transform="translate(-257.75 -42.55)"/><path class="cls-17" d="M276.68,148.38v0A0,0,0,0,0,276.68,148.38Z" transform="translate(-257.75 -42.55)"/><path class="cls-7" d="M275.74,150a.26.26,0,0,1-.33,0,.2.2,0,0,1,0-.29.27.27,0,0,1,.33,0A.2.2,0,0,1,275.74,150Z" transform="translate(-257.75 -42.55)"/><path class="cls-15" d="M275.7,150a.2.2,0,0,1-.25,0,.15.15,0,0,1,0-.23.21.21,0,0,1,.26,0A.15.15,0,0,1,275.7,150Z" transform="translate(-257.75 -42.55)"/><path class="cls-7" d="M276.62,149.1c-.43.4-.4.55-.91.63l-.07,0c-.06,0-.06.06-.08.11s.2.22,1-.27l.22-.19C277,149.14,276.62,149.1,276.62,149.1Z" transform="translate(-257.75 -42.55)"/><path class="cls-7" d="M275.94,151.36a.26.26,0,0,1-.32,0,.19.19,0,0,1,0-.29.24.24,0,0,1,.32,0A.18.18,0,0,1,275.94,151.36Z" transform="translate(-257.75 -42.55)"/><path class="cls-15" d="M275.9,151.34a.19.19,0,0,1-.25,0,.14.14,0,0,1,0-.22.2.2,0,0,1,.26,0A.15.15,0,0,1,275.9,151.34Z" transform="translate(-257.75 -42.55)"/><path class="cls-7" d="M276.59,150.47a4.63,4.63,0,0,1-.84.71.15.15,0,0,0,0,.07c0,.08,0,.29.95-.43l0,0C277,150.57,276.59,150.47,276.59,150.47Z" transform="translate(-257.75 -42.55)"/><path class="cls-16" d="M276.25,146.22s2.3-.15,2-2-1.74,1-2,1.8l.14,0s.85-1.91,1.35-2,.37.57.21.79a3.72,3.72,0,0,1-1.33,1.19c-.05,0-.23-.07-.28-.05S276.32,146.2,276.25,146.22Z" transform="translate(-257.75 -42.55)"/><path class="cls-16" d="M276.38,145.8s-.68-2.16-1.58-2-.95,1.19.34,1.89l1.29.7v-.32a6.76,6.76,0,0,1-1.36-.81c-.43-.39-.86-.86-.47-1s.69-.13,1.21.75c.25.42.39.89.5,1.06s.18.07.18.07Z" transform="translate(-257.75 -42.55)"/><path class="cls-18" d="M276.23,146.4a4.28,4.28,0,0,1-.45,1.06,4,4,0,0,0-.31,1.95c0,.05-.06.25-.06.25s-.14,0-.22-.37a2.28,2.28,0,0,1,.41-2,4.1,4.1,0,0,0,.71-1.27S276.58,145.94,276.23,146.4Z" transform="translate(-257.75 -42.55)"/><path class="cls-18" d="M276.3,145.91s.24,1.27.29,2,.42,1.72.38,2.12.18.37.18.37.13-.19-.23-1.52a12,12,0,0,1-.36-2.28C276.46,146.13,276.47,146,276.3,145.91Z" transform="translate(-257.75 -42.55)"/><path class="cls-7" d="M284,144.39l-.15-1h-3.61l-.1,1.1S283.71,145.65,284,144.39Z" transform="translate(-257.75 -42.55)"/><path class="cls-8" d="M285.23,150.54a16,16,0,0,1,0,3c-.17,1-.59,2.84-3.19,2.66l0-.86S285.24,150.69,285.23,150.54Z" transform="translate(-257.75 -42.55)"/><path class="cls-8" d="M279.12,150.54a16,16,0,0,0,0,3c.17,1,.58,2.84,3.19,2.66l0-.86S279.11,150.69,279.12,150.54Z" transform="translate(-257.75 -42.55)"/><path class="cls-9" d="M284.09,144.93a4.86,4.86,0,0,0-3.72,0,8.79,8.79,0,0,0,.57,2.16,5.47,5.47,0,0,0,2.19.65C283.18,147.69,284.09,144.93,284.09,144.93Z" transform="translate(-257.75 -42.55)"/><path class="cls-10" d="M279.87,145.89c0-3.4.9-.73,1-.43.12.52,2.54.52,2.66,0,.07-.3.86-3.28,1,.55a44.76,44.76,0,0,1,.65,6.75c-.39,2.39-.65,2.66-3,2.66s-2.8-.43-3-2.66A45.29,45.29,0,0,1,279.87,145.89Z" transform="translate(-257.75 -42.55)"/><path class="cls-11" d="M281.24,155.36c0,.35.33.36.74.36s.74,0,.74-.36a.75.75,0,0,0-1.48,0Z" transform="translate(-257.75 -42.55)"/><path class="cls-12" d="M279.17,152.76a12.41,12.41,0,0,1,.07-2.19,3,3,0,0,1,.41-.28c.75-.48,2.09-1.85,1.59.43A4.44,4.44,0,0,0,280,155C279.46,154.66,279.28,154,279.17,152.76Z" transform="translate(-257.75 -42.55)"/><path class="cls-12" d="M285.09,150.34a3.12,3.12,0,0,0-1.75-2.19l0-.77c.65.13,1.17.85,1.52,1.53-.47-1.75-1.51-2-1.51-2l0-.9a3.66,3.66,0,0,1,1.3,1.36c.12.84.27,1.94.37,3Z" transform="translate(-257.75 -42.55)"/><path class="cls-12" d="M281,146.91s-1,.25-1.51,2c.35-.68.87-1.4,1.52-1.53l0,.77a3.09,3.09,0,0,0-1.72,2.13c.11-1,.26-2.13.38-3a3.59,3.59,0,0,1,1.27-1.3Z" transform="translate(-257.75 -42.55)"/><path class="cls-12" d="M283.1,150.72c-.77-2.57.84-.91,1.59-.43l.42.29a12.1,12.1,0,0,1,.06,2.18c-.2,1.24-.37,1.91-.81,2.26A3.78,3.78,0,0,0,283.1,150.72Z" transform="translate(-257.75 -42.55)"/><path class="cls-13" d="M283.29,145.14s-.31,6.15-.77,6.85-.86-.09-1.15-2.35-.55-4.6-.55-4.6a1,1,0,0,1,.65-1.11C282.36,143.61,283.59,144.09,283.29,145.14Z" transform="translate(-257.75 -42.55)"/><path class="cls-14" d="M282.69,145.74s.11-.38.73-.27a43.66,43.66,0,0,1-.32,5.25c-.29,1.43-.44,2.12-1.19,2s-.93-2.08-1.14-3.67-.22-3.5-.22-3.5a.65.65,0,0,1,.81.2s.13,6.44.67,6.59S282.81,147.2,282.69,145.74Z" transform="translate(-257.75 -42.55)"/><path class="cls-7" d="M281.39,146.6a.26.26,0,0,1-.32-.07.2.2,0,0,1,.09-.28.24.24,0,0,1,.31.07A.19.19,0,0,1,281.39,146.6Z" transform="translate(-257.75 -42.55)"/><path class="cls-15" d="M281.36,146.57a.2.2,0,0,1-.24-.06.14.14,0,0,1,.06-.22.19.19,0,0,1,.25.06A.15.15,0,0,1,281.36,146.57Z" transform="translate(-257.75 -42.55)"/><path class="cls-7" d="M281.49,148a.26.26,0,0,1-.32,0,.19.19,0,0,1,.05-.28.24.24,0,0,1,.32,0A.19.19,0,0,1,281.49,148Z" transform="translate(-257.75 -42.55)"/><path class="cls-15" d="M281.47,148a.2.2,0,0,1-.26,0,.16.16,0,0,1,0-.23.2.2,0,0,1,.25,0A.14.14,0,0,1,281.47,148Z" transform="translate(-257.75 -42.55)"/><path class="cls-7" d="M281.68,149.36a.24.24,0,0,1-.32,0,.18.18,0,0,1,0-.29.26.26,0,0,1,.32,0A.19.19,0,0,1,281.68,149.36Z" transform="translate(-257.75 -42.55)"/><path class="cls-15" d="M281.65,149.33a.2.2,0,0,1-.26,0,.14.14,0,0,1,0-.22.21.21,0,0,1,.26,0A.16.16,0,0,1,281.65,149.33Z" transform="translate(-257.75 -42.55)"/><path class="cls-7" d="M281.76,150.72a.25.25,0,0,1-.32,0,.18.18,0,0,1-.05-.28.25.25,0,0,1,.32,0A.19.19,0,0,1,281.76,150.72Z" transform="translate(-257.75 -42.55)"/><path class="cls-15" d="M281.72,150.69a.19.19,0,0,1-.25,0,.15.15,0,0,1,0-.23.2.2,0,0,1,.25,0A.14.14,0,0,1,281.72,150.69Z" transform="translate(-257.75 -42.55)"/><path class="cls-7" d="M281.4,147.25a.25.25,0,0,1-.31-.08.18.18,0,0,1,.08-.27.23.23,0,0,1,.31.07A.2.2,0,0,1,281.4,147.25Z" transform="translate(-257.75 -42.55)"/><path class="cls-15" d="M281.38,147.21a.19.19,0,0,1-.25-.06.15.15,0,0,1,.06-.22.2.2,0,0,1,.25.06A.15.15,0,0,1,281.38,147.21Z" transform="translate(-257.75 -42.55)"/><path class="cls-7" d="M281.54,148.66a.25.25,0,0,1-.32,0,.19.19,0,0,1,0-.28.24.24,0,0,1,.32,0A.18.18,0,0,1,281.54,148.66Z" transform="translate(-257.75 -42.55)"/><path class="cls-15" d="M281.51,148.63a.19.19,0,0,1-.25,0,.14.14,0,0,1,0-.22.2.2,0,0,1,.25,0A.16.16,0,0,1,281.51,148.63Z" transform="translate(-257.75 -42.55)"/><path class="cls-7" d="M281.71,150a.26.26,0,0,1-.33,0,.2.2,0,0,1,0-.29.27.27,0,0,1,.33,0A.2.2,0,0,1,281.71,150Z" transform="translate(-257.75 -42.55)"/><path class="cls-15" d="M281.68,150a.21.21,0,0,1-.26,0,.15.15,0,0,1,0-.23.2.2,0,0,1,.25,0A.15.15,0,0,1,281.68,150Z" transform="translate(-257.75 -42.55)"/><path class="cls-7" d="M281.91,151.36a.26.26,0,0,1-.32,0,.19.19,0,0,1,0-.29.24.24,0,0,1,.32,0A.18.18,0,0,1,281.91,151.36Z" transform="translate(-257.75 -42.55)"/><path class="cls-15" d="M281.88,151.34a.2.2,0,0,1-.26,0,.15.15,0,0,1,0-.22.2.2,0,0,1,.26,0A.16.16,0,0,1,281.88,151.34Z" transform="translate(-257.75 -42.55)"/><path class="cls-7" d="M282.86,146.6a.24.24,0,0,0,.31-.07.19.19,0,0,0-.08-.28.24.24,0,0,0-.31.07A.19.19,0,0,0,282.86,146.6Z" transform="translate(-257.75 -42.55)"/><path class="cls-15" d="M282.88,146.57a.21.21,0,0,0,.25-.06.15.15,0,0,0-.06-.22.19.19,0,0,0-.25.06A.16.16,0,0,0,282.88,146.57Z" transform="translate(-257.75 -42.55)"/><path class="cls-16" d="M281.26,147.07c.05-.09.05-.13.36,0,.63.22,1-.36,1.2-.7,0,0,.38,0,.26.25,0,0-.51.83-1,.78h0a1.06,1.06,0,0,1-.35,0C281.22,147.27,281.22,147.14,281.26,147.07Z" transform="translate(-257.75 -42.55)"/><path class="cls-7" d="M282.75,148a.26.26,0,0,0,.32,0,.18.18,0,0,0-.05-.28.25.25,0,0,0-.32,0A.2.2,0,0,0,282.75,148Z" transform="translate(-257.75 -42.55)"/><path class="cls-15" d="M282.78,148a.19.19,0,0,0,.25,0,.15.15,0,0,0,0-.23.21.21,0,0,0-.26,0A.14.14,0,0,0,282.78,148Z" transform="translate(-257.75 -42.55)"/><path class="cls-16" d="M281.39,148.5c0-.09,0-.16.35-.06a.58.58,0,0,0,.18,0c.47-.13.46-.31.82-.73,0,0,.39,0,.23.28a3.2,3.2,0,0,1-.47.46c0,.14-.18.28-.61.25S281.35,148.58,281.39,148.5Z" transform="translate(-257.75 -42.55)"/><path class="cls-7" d="M282.57,149.36a.24.24,0,0,0,.32,0,.19.19,0,0,0,0-.29.26.26,0,0,0-.32,0A.18.18,0,0,0,282.57,149.36Z" transform="translate(-257.75 -42.55)"/><path class="cls-15" d="M282.6,149.33a.2.2,0,0,0,.26,0,.15.15,0,0,0,0-.22.21.21,0,0,0-.26,0A.15.15,0,0,0,282.6,149.33Z" transform="translate(-257.75 -42.55)"/><path class="cls-16" d="M281.53,149.87c0-.05,0-.1.08-.11l.07,0c.51-.08.48-.23.91-.63,0,0,.38,0,.19.31l-.22.19C281.8,150.25,281.51,150,281.53,149.87Z" transform="translate(-257.75 -42.55)"/><path class="cls-7" d="M282.49,150.72a.25.25,0,0,0,.32,0,.19.19,0,0,0,.05-.28.26.26,0,0,0-.33,0A.18.18,0,0,0,282.49,150.72Z" transform="translate(-257.75 -42.55)"/><path class="cls-15" d="M282.53,150.69a.19.19,0,0,0,.25,0,.16.16,0,0,0,0-.23.21.21,0,0,0-.26,0A.14.14,0,0,0,282.53,150.69Z" transform="translate(-257.75 -42.55)"/><path class="cls-16" d="M281.64,151.3l.12,0a1.9,1.9,0,0,0,.93-.54c.24-.23-.13-.33-.13-.33-.49.35-.43.51-.86.62C281.52,151.14,281.64,151.3,281.64,151.3Z" transform="translate(-257.75 -42.55)"/><path class="cls-7" d="M282.85,147.25a.25.25,0,0,0,.31-.08.19.19,0,0,0-.08-.27.25.25,0,0,0-.32.07A.2.2,0,0,0,282.85,147.25Z" transform="translate(-257.75 -42.55)"/><path class="cls-15" d="M282.87,147.21a.19.19,0,0,0,.25-.06.15.15,0,0,0-.07-.22.19.19,0,0,0-.24.06A.14.14,0,0,0,282.87,147.21Z" transform="translate(-257.75 -42.55)"/><path class="cls-7" d="M281.43,146.35c.23.34.27.52.46.66a.6.6,0,0,0,.73,0c.31-.14.31-.07.36,0s0,.16-.47.29c-.87.2-1.35-.76-1.35-.76C281.05,146.3,281.43,146.35,281.43,146.35Z" transform="translate(-257.75 -42.55)"/><path class="cls-7" d="M282.7,148.66a.24.24,0,0,0,.32,0,.18.18,0,0,0,0-.28.25.25,0,0,0-.32,0A.19.19,0,0,0,282.7,148.66Z" transform="translate(-257.75 -42.55)"/><path class="cls-15" d="M282.73,148.63a.19.19,0,0,0,.25,0,.14.14,0,0,0,0-.22.21.21,0,0,0-.26,0A.16.16,0,0,0,282.73,148.63Z" transform="translate(-257.75 -42.55)"/><path class="cls-17" d="M281.27,148c-.15-.28.23-.28.23-.28.38.43.27.59.79.72a.42.42,0,0,0,.21,0c.33-.1.32,0,.36.06s0,.2-.51.24C281.66,148.79,281.27,148,281.27,148Z" transform="translate(-257.75 -42.55)"/><path class="cls-17" d="M281.59,148.38v0A0,0,0,0,1,281.59,148.38Z" transform="translate(-257.75 -42.55)"/><path class="cls-7" d="M282.54,150a.24.24,0,0,0,.32,0,.19.19,0,0,0,0-.29.26.26,0,0,0-.32,0A.18.18,0,0,0,282.54,150Z" transform="translate(-257.75 -42.55)"/><path class="cls-15" d="M282.57,150a.21.21,0,0,0,.26,0,.15.15,0,0,0,0-.23.21.21,0,0,0-.26,0A.15.15,0,0,0,282.57,150Z" transform="translate(-257.75 -42.55)"/><path class="cls-7" d="M281.66,149.1c.42.4.4.55.91.63l.06,0c.07,0,.07.06.08.11s-.19.22-1-.27l-.22-.19C281.27,149.14,281.66,149.1,281.66,149.1Z" transform="translate(-257.75 -42.55)"/><path class="cls-7" d="M282.33,151.36a.26.26,0,0,0,.32,0,.2.2,0,0,0,.05-.29.25.25,0,0,0-.32,0A.18.18,0,0,0,282.33,151.36Z" transform="translate(-257.75 -42.55)"/><path class="cls-15" d="M282.37,151.34a.19.19,0,0,0,.25,0,.14.14,0,0,0,0-.22.19.19,0,0,0-.25,0A.16.16,0,0,0,282.37,151.34Z" transform="translate(-257.75 -42.55)"/><path class="cls-7" d="M281.55,150.8l0,0c.92.72,1,.51,1,.43a.2.2,0,0,1,0-.07,4.14,4.14,0,0,1-.85-.71S281.31,150.57,281.55,150.8Z" transform="translate(-257.75 -42.55)"/><path class="cls-16" d="M282,146.22s-2.29-.15-2-2,1.73,1,2,1.8l-.14,0s-.85-1.91-1.35-2-.37.57-.21.79a3.69,3.69,0,0,0,1.34,1.19c.05,0,.22-.07.27-.05S282,146.2,282,146.22Z" transform="translate(-257.75 -42.55)"/><path class="cls-16" d="M281.89,145.8s.68-2.16,1.59-2,.94,1.19-.35,1.89l-1.28.7v-.32a6.73,6.73,0,0,0,1.37-.81c.42-.39.86-.86.46-1s-.69-.13-1.21.75c-.24.42-.39.89-.5,1.06s-.18.07-.18.07Z" transform="translate(-257.75 -42.55)"/><path class="cls-18" d="M282,146.4a4.15,4.15,0,0,0,.46,1.06,3.88,3.88,0,0,1,.3,1.95c0,.05.06.25.06.25s.14,0,.23-.37a2.35,2.35,0,0,0-.41-2A4,4,0,0,1,282,146S281.69,145.94,282,146.4Z" transform="translate(-257.75 -42.55)"/><path class="cls-18" d="M282,145.91s-.24,1.27-.3,2-.42,1.72-.38,2.12-.17.37-.17.37-.14-.19.23-1.52a14,14,0,0,0,.36-2.28C281.81,146.13,281.81,146,282,145.91Z" transform="translate(-257.75 -42.55)"/><polygon class="cls-19" points="28.11 46.59 14.65 46.59 14.23 48.63 28.53 48.63 28.11 46.59"/><path class="cls-4" d="M267.59,83.75a3.33,3.33,0,0,1,.09.84c0,1.56-.36,2.43-2.33,7.34-1.3,3.23-2.92,6.8-2.92,6.8L260.32,98a45.15,45.15,0,0,0,2.24-6.84,64,64,0,0,1,2.71-9C265.77,81.51,267.49,83.14,267.59,83.75Z" transform="translate(-257.75 -42.55)"/><path class="cls-4" d="M267.68,84.59c-.35.88-3.1,0-2.77-1.5,1.2-3.76,3.1-20.32,7.17-20,0,0,1.61,1.16.57,5.26-.26,1-2.13,5.81-2.8,8.72C269.49,78.69,268,83.47,267.68,84.59Z" transform="translate(-257.75 -42.55)"/><g class="cls-20"><path class="cls-21" d="M276.07,74.62a3.05,3.05,0,0,1-2.9-2,3,3,0,0,0,5.8,0A3.05,3.05,0,0,1,276.07,74.62Z" transform="translate(-257.75 -42.55)"/></g><g class="cls-20"><path class="cls-21" d="M281.93,74.62a3,3,0,0,1-2.84-2,2.89,2.89,0,0,0,5.69,0A3,3,0,0,1,281.93,74.62Z" transform="translate(-257.75 -42.55)"/></g><rect class="cls-22" x="294.77" y="98.07" width="4.9" height="2.21" transform="translate(-235.98 205.96) rotate(-46.92)"/><path class="cls-22" d="M299.7,98.13a1.11,1.11,0,0,0-.05-1.56,1.12,1.12,0,0,0-1.57.06,1.1,1.1,0,1,0,1.62,1.5Z" transform="translate(-257.75 -42.55)"/><path class="cls-23" d="M296.54,102.15a.9.9,0,0,0,0-1.28l-.93-.87a.91.91,0,0,0-1.28,0h0a.91.91,0,0,0,0,1.28l.94.87a.9.9,0,0,0,1.27,0Z" transform="translate(-257.75 -42.55)"/><path class="cls-4" d="M290.94,83.75a3.33,3.33,0,0,0-.09.84c0,1.56.36,2.43,2.33,7.34,1.3,3.23,2.92,6.8,2.92,6.8l2.11-.71A45.56,45.56,0,0,1,296,91.18a62.57,62.57,0,0,0-2.7-9C292.76,81.51,291.05,83.14,290.94,83.75Z" transform="translate(-257.75 -42.55)"/><path class="cls-4" d="M290.85,84.59c.35.88,3.1,0,2.77-1.5-1.2-3.76-3.1-20.32-7.17-20,0,0-1.61,1.16-.57,5.26.26,1,2.13,5.81,2.8,8.72C289,78.69,290.58,83.47,290.85,84.59Z" transform="translate(-257.75 -42.55)"/><path class="cls-4" d="M297.42,101.17a2.82,2.82,0,0,0-.26-1.16,1,1,0,0,1,.57.34l.6-.58-.19-.25.2.24.69-.68-.19-.2.2.2.71-.69-.26-.25a1.76,1.76,0,0,0,.3.22l.55-.54c-.16-.11-.37-.58-.59-.75-1.14-.87-1.19-1-2.05-1.19a3.43,3.43,0,0,0-2.33,1.52c-.18.64-.47,1.15.79,3.18.17.29.52.94.84,1S297.42,101.17,297.42,101.17Z" transform="translate(-257.75 -42.55)"/><path class="cls-4" d="M296.27,98.42c1.42-1.58,1.05-2.61,2.07-2.23A7.26,7.26,0,0,1,301,98.37a.31.31,0,0,1-.1.38.55.55,0,0,1-.33.17c-.1,0-.26-.22-.26-.22h0s.07,0,.33.56a.5.5,0,0,1-.16.46c-.13.13-.47.46-.66.36-.43-.22-.32-.28-.37-.29s-.13-.27.27.27c.12.17,0,.46-.19.59s-.37.28-.55.16a3.14,3.14,0,0,1-.54-.47.84.84,0,0,1,.49.51c.06.11-.12.3-.25.43a.5.5,0,0,1-.53.08,7.47,7.47,0,0,1-1.12-1S295.59,99.19,296.27,98.42Z" transform="translate(-257.75 -42.55)"/><path class="cls-1" d="M279.27,167.17a10.1,10.1,0,0,1-6.87-2.8c-5.46-4.88-8.32-15.47-8.68-23.23-1.17-25.65-.89-39.91-.89-40.06l1.07,0c0,.14-.28,14.37.89,40,.34,7.55,3.09,17.81,8.32,22.49a9,9,0,0,0,6.75,2.5l.07,1.06Q279.6,167.17,279.27,167.17Z" transform="translate(-257.75 -42.55)"/><rect class="cls-22" x="260.46" y="96.72" width="2.21" height="4.9" transform="translate(-254.96 162.86) rotate(-43.08)"/><path class="cls-22" d="M259.08,98.13a1.1,1.1,0,1,1,1.57.06A1.12,1.12,0,0,1,259.08,98.13Z" transform="translate(-257.75 -42.55)"/><path class="cls-23" d="M262.24,102.15a.91.91,0,0,1,0-1.28l.93-.87a.91.91,0,0,1,1.28,0h0a.91.91,0,0,1,0,1.28l-.93.87a.91.91,0,0,1-1.28,0Z" transform="translate(-257.75 -42.55)"/><path class="cls-4" d="M261.36,101.17a2.74,2.74,0,0,1,.27-1.16,1,1,0,0,0-.58.34l-.59-.58.18-.25-.19.24-.7-.68.19-.2-.2.2-.7-.69c.12-.11.2-.2.25-.25a1.57,1.57,0,0,1-.29.22l-.55-.54c.15-.11.37-.58.59-.75,1.13-.87,1.18-1,2-1.19a3.41,3.41,0,0,1,2.33,1.52c.18.64.47,1.15-.78,3.18-.18.29-.53.94-.85,1S261.36,101.17,261.36,101.17Z" transform="translate(-257.75 -42.55)"/><path class="cls-4" d="M262.51,98.42c-1.41-1.58-1.05-2.61-2.07-2.23a7.26,7.26,0,0,0-2.66,2.18.31.31,0,0,0,.1.38.59.59,0,0,0,.34.17c.09,0,.25-.22.25-.22h0s-.07,0-.33.56a.5.5,0,0,0,.16.46c.14.13.47.46.66.36.44-.22.32-.28.37-.29s.13-.27-.26.27c-.12.17,0,.46.18.59s.37.28.55.16a2.51,2.51,0,0,0,.54-.47.87.87,0,0,0-.49.51c-.06.11.12.3.25.43a.51.51,0,0,0,.54.08,8,8,0,0,0,1.12-1S263.19,99.19,262.51,98.42Z" transform="translate(-257.75 -42.55)"/></svg>